<?xml version="1.0" encoding="utf-8" standalone="no"?>
<!DOCTYPE svg PUBLIC "-//W3C//DTD SVG 1.1//EN"
  "http://www.w3.org/Graphics/SVG/1.1/DTD/svg11.dtd">
<svg xmlns:xlink="http://www.w3.org/1999/xlink" width="1080pt" height="216pt" viewBox="0 0 1080 216" xmlns="http://www.w3.org/2000/svg" version="1.1">
 <metadata>
  <rdf:RDF xmlns:dc="http://purl.org/dc/elements/1.1/" xmlns:cc="http://creativecommons.org/ns#" xmlns:rdf="http://www.w3.org/1999/02/22-rdf-syntax-ns#">
   <cc:Work>
    <dc:type rdf:resource="http://purl.org/dc/dcmitype/StillImage"/>
    <dc:date>2025-05-10T21:29:05.644424</dc:date>
    <dc:format>image/svg+xml</dc:format>
    <dc:creator>
     <cc:Agent>
      <dc:title>Matplotlib v3.9.1, https://matplotlib.org/</dc:title>
     </cc:Agent>
    </dc:creator>
   </cc:Work>
  </rdf:RDF>
 </metadata>
 <defs>
  <style type="text/css">*{stroke-linejoin: round; stroke-linecap: butt}</style>
 </defs>
 <g id="figure_1">
  <g id="patch_1">
   <path d="M 0 216 
L 1080 216 
L 1080 0 
L 0 0 
z
" style="fill: #ffffff"/>
  </g>
  <g id="axes_1">
   <g id="patch_2">
    <path d="M 135 192.24 
L 972 192.24 
L 972 25.92 
L 135 25.92 
z
" style="fill: #ffffff"/>
   </g>
   <g id="PathCollection_1">
    <defs>
     <path id="m88fdb842a3" d="M 0 3 
C 0.795609 3 1.55874 2.683901 2.12132 2.12132 
C 2.683901 1.55874 3 0.795609 3 0 
C 3 -0.795609 2.683901 -1.55874 2.12132 -2.12132 
C 1.55874 -2.683901 0.795609 -3 0 -3 
C -0.795609 -3 -1.55874 -2.683901 -2.12132 -2.12132 
C -2.683901 -1.55874 -3 -0.795609 -3 0 
C -3 0.795609 -2.683901 1.55874 -2.12132 2.12132 
C -1.55874 2.683901 -0.795609 3 0 3 
z
" style="stroke: #1f77b4"/>
    </defs>
    <g clip-path="url(#p57c6843450)">
     <use xlink:href="#m88fdb842a3" x="173.045455" y="109.08" style="fill: #1f77b4; stroke: #1f77b4"/>
     <use xlink:href="#m88fdb842a3" x="176.029412" y="109.08" style="fill: #1f77b4; stroke: #1f77b4"/>
     <use xlink:href="#m88fdb842a3" x="179.013369" y="109.08" style="fill: #1f77b4; stroke: #1f77b4"/>
     <use xlink:href="#m88fdb842a3" x="181.997326" y="109.08" style="fill: #1f77b4; stroke: #1f77b4"/>
     <use xlink:href="#m88fdb842a3" x="184.981283" y="109.08" style="fill: #1f77b4; stroke: #1f77b4"/>
     <use xlink:href="#m88fdb842a3" x="187.965241" y="109.08" style="fill: #1f77b4; stroke: #1f77b4"/>
     <use xlink:href="#m88fdb842a3" x="190.949198" y="109.08" style="fill: #1f77b4; stroke: #1f77b4"/>
     <use xlink:href="#m88fdb842a3" x="193.933155" y="109.08" style="fill: #1f77b4; stroke: #1f77b4"/>
     <use xlink:href="#m88fdb842a3" x="196.917112" y="109.08" style="fill: #1f77b4; stroke: #1f77b4"/>
     <use xlink:href="#m88fdb842a3" x="199.90107" y="109.08" style="fill: #1f77b4; stroke: #1f77b4"/>
     <use xlink:href="#m88fdb842a3" x="202.885027" y="109.08" style="fill: #1f77b4; stroke: #1f77b4"/>
     <use xlink:href="#m88fdb842a3" x="205.868984" y="109.08" style="fill: #1f77b4; stroke: #1f77b4"/>
     <use xlink:href="#m88fdb842a3" x="208.852941" y="109.08" style="fill: #1f77b4; stroke: #1f77b4"/>
     <use xlink:href="#m88fdb842a3" x="211.836898" y="109.08" style="fill: #1f77b4; stroke: #1f77b4"/>
     <use xlink:href="#m88fdb842a3" x="214.820856" y="109.08" style="fill: #1f77b4; stroke: #1f77b4"/>
     <use xlink:href="#m88fdb842a3" x="217.804813" y="109.08" style="fill: #1f77b4; stroke: #1f77b4"/>
     <use xlink:href="#m88fdb842a3" x="220.78877" y="109.08" style="fill: #1f77b4; stroke: #1f77b4"/>
     <use xlink:href="#m88fdb842a3" x="223.772727" y="109.08" style="fill: #1f77b4; stroke: #1f77b4"/>
     <use xlink:href="#m88fdb842a3" x="226.756684" y="109.08" style="fill: #1f77b4; stroke: #1f77b4"/>
     <use xlink:href="#m88fdb842a3" x="229.740642" y="109.08" style="fill: #1f77b4; stroke: #1f77b4"/>
     <use xlink:href="#m88fdb842a3" x="232.724599" y="109.08" style="fill: #1f77b4; stroke: #1f77b4"/>
     <use xlink:href="#m88fdb842a3" x="235.708556" y="109.08" style="fill: #1f77b4; stroke: #1f77b4"/>
     <use xlink:href="#m88fdb842a3" x="238.692513" y="109.08" style="fill: #1f77b4; stroke: #1f77b4"/>
     <use xlink:href="#m88fdb842a3" x="241.676471" y="109.08" style="fill: #1f77b4; stroke: #1f77b4"/>
     <use xlink:href="#m88fdb842a3" x="244.660428" y="109.08" style="fill: #1f77b4; stroke: #1f77b4"/>
     <use xlink:href="#m88fdb842a3" x="247.644385" y="109.08" style="fill: #1f77b4; stroke: #1f77b4"/>
     <use xlink:href="#m88fdb842a3" x="250.628342" y="109.08" style="fill: #1f77b4; stroke: #1f77b4"/>
     <use xlink:href="#m88fdb842a3" x="253.612299" y="109.08" style="fill: #1f77b4; stroke: #1f77b4"/>
     <use xlink:href="#m88fdb842a3" x="256.596257" y="109.08" style="fill: #1f77b4; stroke: #1f77b4"/>
     <use xlink:href="#m88fdb842a3" x="259.580214" y="109.08" style="fill: #1f77b4; stroke: #1f77b4"/>
     <use xlink:href="#m88fdb842a3" x="262.564171" y="109.08" style="fill: #1f77b4; stroke: #1f77b4"/>
     <use xlink:href="#m88fdb842a3" x="265.548128" y="109.08" style="fill: #1f77b4; stroke: #1f77b4"/>
     <use xlink:href="#m88fdb842a3" x="268.532086" y="109.08" style="fill: #1f77b4; stroke: #1f77b4"/>
     <use xlink:href="#m88fdb842a3" x="271.516043" y="109.08" style="fill: #1f77b4; stroke: #1f77b4"/>
     <use xlink:href="#m88fdb842a3" x="274.5" y="109.08" style="fill: #1f77b4; stroke: #1f77b4"/>
     <use xlink:href="#m88fdb842a3" x="277.483957" y="109.08" style="fill: #1f77b4; stroke: #1f77b4"/>
     <use xlink:href="#m88fdb842a3" x="280.467914" y="109.08" style="fill: #1f77b4; stroke: #1f77b4"/>
     <use xlink:href="#m88fdb842a3" x="283.451872" y="109.08" style="fill: #1f77b4; stroke: #1f77b4"/>
     <use xlink:href="#m88fdb842a3" x="286.435829" y="109.08" style="fill: #1f77b4; stroke: #1f77b4"/>
     <use xlink:href="#m88fdb842a3" x="289.419786" y="109.08" style="fill: #1f77b4; stroke: #1f77b4"/>
     <use xlink:href="#m88fdb842a3" x="292.403743" y="109.08" style="fill: #1f77b4; stroke: #1f77b4"/>
     <use xlink:href="#m88fdb842a3" x="295.387701" y="109.08" style="fill: #1f77b4; stroke: #1f77b4"/>
     <use xlink:href="#m88fdb842a3" x="298.371658" y="109.08" style="fill: #1f77b4; stroke: #1f77b4"/>
     <use xlink:href="#m88fdb842a3" x="301.355615" y="109.08" style="fill: #1f77b4; stroke: #1f77b4"/>
     <use xlink:href="#m88fdb842a3" x="304.339572" y="109.08" style="fill: #1f77b4; stroke: #1f77b4"/>
     <use xlink:href="#m88fdb842a3" x="307.323529" y="109.08" style="fill: #1f77b4; stroke: #1f77b4"/>
     <use xlink:href="#m88fdb842a3" x="310.307487" y="109.08" style="fill: #1f77b4; stroke: #1f77b4"/>
     <use xlink:href="#m88fdb842a3" x="313.291444" y="109.08" style="fill: #1f77b4; stroke: #1f77b4"/>
     <use xlink:href="#m88fdb842a3" x="316.275401" y="109.08" style="fill: #1f77b4; stroke: #1f77b4"/>
     <use xlink:href="#m88fdb842a3" x="319.259358" y="109.08" style="fill: #1f77b4; stroke: #1f77b4"/>
     <use xlink:href="#m88fdb842a3" x="322.243316" y="109.08" style="fill: #1f77b4; stroke: #1f77b4"/>
     <use xlink:href="#m88fdb842a3" x="325.227273" y="109.08" style="fill: #1f77b4; stroke: #1f77b4"/>
     <use xlink:href="#m88fdb842a3" x="328.21123" y="109.08" style="fill: #1f77b4; stroke: #1f77b4"/>
     <use xlink:href="#m88fdb842a3" x="331.195187" y="109.08" style="fill: #1f77b4; stroke: #1f77b4"/>
     <use xlink:href="#m88fdb842a3" x="334.179144" y="109.08" style="fill: #1f77b4; stroke: #1f77b4"/>
     <use xlink:href="#m88fdb842a3" x="337.163102" y="109.08" style="fill: #1f77b4; stroke: #1f77b4"/>
     <use xlink:href="#m88fdb842a3" x="340.147059" y="109.08" style="fill: #1f77b4; stroke: #1f77b4"/>
     <use xlink:href="#m88fdb842a3" x="343.131016" y="109.08" style="fill: #1f77b4; stroke: #1f77b4"/>
     <use xlink:href="#m88fdb842a3" x="346.114973" y="109.08" style="fill: #1f77b4; stroke: #1f77b4"/>
     <use xlink:href="#m88fdb842a3" x="349.09893" y="109.08" style="fill: #1f77b4; stroke: #1f77b4"/>
     <use xlink:href="#m88fdb842a3" x="352.082888" y="109.08" style="fill: #1f77b4; stroke: #1f77b4"/>
     <use xlink:href="#m88fdb842a3" x="355.066845" y="109.08" style="fill: #1f77b4; stroke: #1f77b4"/>
     <use xlink:href="#m88fdb842a3" x="358.050802" y="109.08" style="fill: #1f77b4; stroke: #1f77b4"/>
     <use xlink:href="#m88fdb842a3" x="361.034759" y="109.08" style="fill: #1f77b4; stroke: #1f77b4"/>
     <use xlink:href="#m88fdb842a3" x="364.018717" y="109.08" style="fill: #1f77b4; stroke: #1f77b4"/>
     <use xlink:href="#m88fdb842a3" x="367.002674" y="109.08" style="fill: #1f77b4; stroke: #1f77b4"/>
     <use xlink:href="#m88fdb842a3" x="369.986631" y="109.08" style="fill: #1f77b4; stroke: #1f77b4"/>
     <use xlink:href="#m88fdb842a3" x="372.970588" y="109.08" style="fill: #1f77b4; stroke: #1f77b4"/>
     <use xlink:href="#m88fdb842a3" x="375.954545" y="109.08" style="fill: #1f77b4; stroke: #1f77b4"/>
     <use xlink:href="#m88fdb842a3" x="378.938503" y="109.08" style="fill: #1f77b4; stroke: #1f77b4"/>
     <use xlink:href="#m88fdb842a3" x="381.92246" y="109.08" style="fill: #1f77b4; stroke: #1f77b4"/>
     <use xlink:href="#m88fdb842a3" x="384.906417" y="109.08" style="fill: #1f77b4; stroke: #1f77b4"/>
     <use xlink:href="#m88fdb842a3" x="387.890374" y="109.08" style="fill: #1f77b4; stroke: #1f77b4"/>
     <use xlink:href="#m88fdb842a3" x="390.874332" y="109.08" style="fill: #1f77b4; stroke: #1f77b4"/>
     <use xlink:href="#m88fdb842a3" x="393.858289" y="109.08" style="fill: #1f77b4; stroke: #1f77b4"/>
     <use xlink:href="#m88fdb842a3" x="396.842246" y="109.08" style="fill: #1f77b4; stroke: #1f77b4"/>
     <use xlink:href="#m88fdb842a3" x="399.826203" y="109.08" style="fill: #1f77b4; stroke: #1f77b4"/>
     <use xlink:href="#m88fdb842a3" x="402.81016" y="109.08" style="fill: #1f77b4; stroke: #1f77b4"/>
     <use xlink:href="#m88fdb842a3" x="405.794118" y="109.08" style="fill: #1f77b4; stroke: #1f77b4"/>
     <use xlink:href="#m88fdb842a3" x="408.778075" y="109.08" style="fill: #1f77b4; stroke: #1f77b4"/>
     <use xlink:href="#m88fdb842a3" x="411.762032" y="109.08" style="fill: #1f77b4; stroke: #1f77b4"/>
     <use xlink:href="#m88fdb842a3" x="414.745989" y="109.08" style="fill: #1f77b4; stroke: #1f77b4"/>
     <use xlink:href="#m88fdb842a3" x="417.729947" y="109.08" style="fill: #1f77b4; stroke: #1f77b4"/>
     <use xlink:href="#m88fdb842a3" x="420.713904" y="109.08" style="fill: #1f77b4; stroke: #1f77b4"/>
     <use xlink:href="#m88fdb842a3" x="423.697861" y="109.08" style="fill: #1f77b4; stroke: #1f77b4"/>
     <use xlink:href="#m88fdb842a3" x="426.681818" y="109.08" style="fill: #1f77b4; stroke: #1f77b4"/>
     <use xlink:href="#m88fdb842a3" x="429.665775" y="109.08" style="fill: #1f77b4; stroke: #1f77b4"/>
     <use xlink:href="#m88fdb842a3" x="432.649733" y="109.08" style="fill: #1f77b4; stroke: #1f77b4"/>
     <use xlink:href="#m88fdb842a3" x="435.63369" y="109.08" style="fill: #1f77b4; stroke: #1f77b4"/>
     <use xlink:href="#m88fdb842a3" x="438.617647" y="109.08" style="fill: #1f77b4; stroke: #1f77b4"/>
     <use xlink:href="#m88fdb842a3" x="441.601604" y="109.08" style="fill: #1f77b4; stroke: #1f77b4"/>
     <use xlink:href="#m88fdb842a3" x="444.585561" y="109.08" style="fill: #1f77b4; stroke: #1f77b4"/>
     <use xlink:href="#m88fdb842a3" x="447.569519" y="109.08" style="fill: #1f77b4; stroke: #1f77b4"/>
     <use xlink:href="#m88fdb842a3" x="450.553476" y="109.08" style="fill: #1f77b4; stroke: #1f77b4"/>
     <use xlink:href="#m88fdb842a3" x="453.537433" y="109.08" style="fill: #1f77b4; stroke: #1f77b4"/>
     <use xlink:href="#m88fdb842a3" x="456.52139" y="109.08" style="fill: #1f77b4; stroke: #1f77b4"/>
     <use xlink:href="#m88fdb842a3" x="459.505348" y="109.08" style="fill: #1f77b4; stroke: #1f77b4"/>
     <use xlink:href="#m88fdb842a3" x="462.489305" y="109.08" style="fill: #1f77b4; stroke: #1f77b4"/>
     <use xlink:href="#m88fdb842a3" x="465.473262" y="109.08" style="fill: #1f77b4; stroke: #1f77b4"/>
     <use xlink:href="#m88fdb842a3" x="468.457219" y="109.08" style="fill: #1f77b4; stroke: #1f77b4"/>
     <use xlink:href="#m88fdb842a3" x="471.441176" y="109.08" style="fill: #1f77b4; stroke: #1f77b4"/>
     <use xlink:href="#m88fdb842a3" x="474.425134" y="109.08" style="fill: #1f77b4; stroke: #1f77b4"/>
     <use xlink:href="#m88fdb842a3" x="477.409091" y="109.08" style="fill: #1f77b4; stroke: #1f77b4"/>
     <use xlink:href="#m88fdb842a3" x="480.393048" y="109.08" style="fill: #1f77b4; stroke: #1f77b4"/>
     <use xlink:href="#m88fdb842a3" x="483.377005" y="109.08" style="fill: #1f77b4; stroke: #1f77b4"/>
     <use xlink:href="#m88fdb842a3" x="486.360963" y="109.08" style="fill: #1f77b4; stroke: #1f77b4"/>
     <use xlink:href="#m88fdb842a3" x="489.34492" y="109.08" style="fill: #1f77b4; stroke: #1f77b4"/>
     <use xlink:href="#m88fdb842a3" x="492.328877" y="109.08" style="fill: #1f77b4; stroke: #1f77b4"/>
     <use xlink:href="#m88fdb842a3" x="495.312834" y="109.08" style="fill: #1f77b4; stroke: #1f77b4"/>
     <use xlink:href="#m88fdb842a3" x="498.296791" y="109.08" style="fill: #1f77b4; stroke: #1f77b4"/>
     <use xlink:href="#m88fdb842a3" x="501.280749" y="109.08" style="fill: #1f77b4; stroke: #1f77b4"/>
     <use xlink:href="#m88fdb842a3" x="504.264706" y="109.08" style="fill: #1f77b4; stroke: #1f77b4"/>
     <use xlink:href="#m88fdb842a3" x="507.248663" y="109.08" style="fill: #1f77b4; stroke: #1f77b4"/>
     <use xlink:href="#m88fdb842a3" x="510.23262" y="109.08" style="fill: #1f77b4; stroke: #1f77b4"/>
     <use xlink:href="#m88fdb842a3" x="513.216578" y="109.08" style="fill: #1f77b4; stroke: #1f77b4"/>
     <use xlink:href="#m88fdb842a3" x="516.200535" y="109.08" style="fill: #1f77b4; stroke: #1f77b4"/>
     <use xlink:href="#m88fdb842a3" x="519.184492" y="109.08" style="fill: #1f77b4; stroke: #1f77b4"/>
     <use xlink:href="#m88fdb842a3" x="522.168449" y="109.08" style="fill: #1f77b4; stroke: #1f77b4"/>
     <use xlink:href="#m88fdb842a3" x="525.152406" y="109.08" style="fill: #1f77b4; stroke: #1f77b4"/>
     <use xlink:href="#m88fdb842a3" x="528.136364" y="109.08" style="fill: #1f77b4; stroke: #1f77b4"/>
     <use xlink:href="#m88fdb842a3" x="531.120321" y="109.08" style="fill: #1f77b4; stroke: #1f77b4"/>
     <use xlink:href="#m88fdb842a3" x="534.104278" y="109.08" style="fill: #1f77b4; stroke: #1f77b4"/>
     <use xlink:href="#m88fdb842a3" x="537.088235" y="109.08" style="fill: #1f77b4; stroke: #1f77b4"/>
     <use xlink:href="#m88fdb842a3" x="540.072193" y="109.08" style="fill: #1f77b4; stroke: #1f77b4"/>
     <use xlink:href="#m88fdb842a3" x="543.05615" y="109.08" style="fill: #1f77b4; stroke: #1f77b4"/>
     <use xlink:href="#m88fdb842a3" x="546.040107" y="109.08" style="fill: #1f77b4; stroke: #1f77b4"/>
     <use xlink:href="#m88fdb842a3" x="549.024064" y="109.08" style="fill: #1f77b4; stroke: #1f77b4"/>
     <use xlink:href="#m88fdb842a3" x="552.008021" y="109.08" style="fill: #1f77b4; stroke: #1f77b4"/>
     <use xlink:href="#m88fdb842a3" x="554.991979" y="109.08" style="fill: #1f77b4; stroke: #1f77b4"/>
     <use xlink:href="#m88fdb842a3" x="557.975936" y="109.08" style="fill: #1f77b4; stroke: #1f77b4"/>
     <use xlink:href="#m88fdb842a3" x="560.959893" y="109.08" style="fill: #1f77b4; stroke: #1f77b4"/>
     <use xlink:href="#m88fdb842a3" x="563.94385" y="109.08" style="fill: #1f77b4; stroke: #1f77b4"/>
     <use xlink:href="#m88fdb842a3" x="566.927807" y="109.08" style="fill: #1f77b4; stroke: #1f77b4"/>
     <use xlink:href="#m88fdb842a3" x="569.911765" y="109.08" style="fill: #1f77b4; stroke: #1f77b4"/>
     <use xlink:href="#m88fdb842a3" x="572.895722" y="109.08" style="fill: #1f77b4; stroke: #1f77b4"/>
     <use xlink:href="#m88fdb842a3" x="575.879679" y="109.08" style="fill: #1f77b4; stroke: #1f77b4"/>
     <use xlink:href="#m88fdb842a3" x="578.863636" y="109.08" style="fill: #1f77b4; stroke: #1f77b4"/>
     <use xlink:href="#m88fdb842a3" x="581.847594" y="109.08" style="fill: #1f77b4; stroke: #1f77b4"/>
     <use xlink:href="#m88fdb842a3" x="584.831551" y="109.08" style="fill: #1f77b4; stroke: #1f77b4"/>
     <use xlink:href="#m88fdb842a3" x="587.815508" y="109.08" style="fill: #1f77b4; stroke: #1f77b4"/>
     <use xlink:href="#m88fdb842a3" x="590.799465" y="109.08" style="fill: #1f77b4; stroke: #1f77b4"/>
     <use xlink:href="#m88fdb842a3" x="593.783422" y="109.08" style="fill: #1f77b4; stroke: #1f77b4"/>
     <use xlink:href="#m88fdb842a3" x="596.76738" y="109.08" style="fill: #1f77b4; stroke: #1f77b4"/>
     <use xlink:href="#m88fdb842a3" x="599.751337" y="109.08" style="fill: #1f77b4; stroke: #1f77b4"/>
     <use xlink:href="#m88fdb842a3" x="602.735294" y="109.08" style="fill: #1f77b4; stroke: #1f77b4"/>
     <use xlink:href="#m88fdb842a3" x="605.719251" y="109.08" style="fill: #1f77b4; stroke: #1f77b4"/>
     <use xlink:href="#m88fdb842a3" x="608.703209" y="109.08" style="fill: #1f77b4; stroke: #1f77b4"/>
     <use xlink:href="#m88fdb842a3" x="611.687166" y="109.08" style="fill: #1f77b4; stroke: #1f77b4"/>
     <use xlink:href="#m88fdb842a3" x="614.671123" y="109.08" style="fill: #1f77b4; stroke: #1f77b4"/>
     <use xlink:href="#m88fdb842a3" x="617.65508" y="109.08" style="fill: #1f77b4; stroke: #1f77b4"/>
     <use xlink:href="#m88fdb842a3" x="620.639037" y="109.08" style="fill: #1f77b4; stroke: #1f77b4"/>
     <use xlink:href="#m88fdb842a3" x="623.622995" y="109.08" style="fill: #1f77b4; stroke: #1f77b4"/>
     <use xlink:href="#m88fdb842a3" x="626.606952" y="109.08" style="fill: #1f77b4; stroke: #1f77b4"/>
     <use xlink:href="#m88fdb842a3" x="629.590909" y="109.08" style="fill: #1f77b4; stroke: #1f77b4"/>
     <use xlink:href="#m88fdb842a3" x="632.574866" y="109.08" style="fill: #1f77b4; stroke: #1f77b4"/>
     <use xlink:href="#m88fdb842a3" x="635.558824" y="109.08" style="fill: #1f77b4; stroke: #1f77b4"/>
     <use xlink:href="#m88fdb842a3" x="638.542781" y="109.08" style="fill: #1f77b4; stroke: #1f77b4"/>
     <use xlink:href="#m88fdb842a3" x="641.526738" y="109.08" style="fill: #1f77b4; stroke: #1f77b4"/>
     <use xlink:href="#m88fdb842a3" x="644.510695" y="109.08" style="fill: #1f77b4; stroke: #1f77b4"/>
     <use xlink:href="#m88fdb842a3" x="647.494652" y="109.08" style="fill: #1f77b4; stroke: #1f77b4"/>
     <use xlink:href="#m88fdb842a3" x="650.47861" y="109.08" style="fill: #1f77b4; stroke: #1f77b4"/>
     <use xlink:href="#m88fdb842a3" x="653.462567" y="109.08" style="fill: #1f77b4; stroke: #1f77b4"/>
     <use xlink:href="#m88fdb842a3" x="656.446524" y="109.08" style="fill: #1f77b4; stroke: #1f77b4"/>
     <use xlink:href="#m88fdb842a3" x="659.430481" y="109.08" style="fill: #1f77b4; stroke: #1f77b4"/>
     <use xlink:href="#m88fdb842a3" x="662.414439" y="109.08" style="fill: #1f77b4; stroke: #1f77b4"/>
     <use xlink:href="#m88fdb842a3" x="665.398396" y="109.08" style="fill: #1f77b4; stroke: #1f77b4"/>
     <use xlink:href="#m88fdb842a3" x="668.382353" y="109.08" style="fill: #1f77b4; stroke: #1f77b4"/>
     <use xlink:href="#m88fdb842a3" x="671.36631" y="109.08" style="fill: #1f77b4; stroke: #1f77b4"/>
     <use xlink:href="#m88fdb842a3" x="674.350267" y="109.08" style="fill: #1f77b4; stroke: #1f77b4"/>
     <use xlink:href="#m88fdb842a3" x="677.334225" y="109.08" style="fill: #1f77b4; stroke: #1f77b4"/>
     <use xlink:href="#m88fdb842a3" x="680.318182" y="109.08" style="fill: #1f77b4; stroke: #1f77b4"/>
     <use xlink:href="#m88fdb842a3" x="683.302139" y="109.08" style="fill: #1f77b4; stroke: #1f77b4"/>
     <use xlink:href="#m88fdb842a3" x="686.286096" y="109.08" style="fill: #1f77b4; stroke: #1f77b4"/>
     <use xlink:href="#m88fdb842a3" x="689.270053" y="109.08" style="fill: #1f77b4; stroke: #1f77b4"/>
     <use xlink:href="#m88fdb842a3" x="692.254011" y="109.08" style="fill: #1f77b4; stroke: #1f77b4"/>
     <use xlink:href="#m88fdb842a3" x="695.237968" y="109.08" style="fill: #1f77b4; stroke: #1f77b4"/>
     <use xlink:href="#m88fdb842a3" x="698.221925" y="109.08" style="fill: #1f77b4; stroke: #1f77b4"/>
     <use xlink:href="#m88fdb842a3" x="701.205882" y="109.08" style="fill: #1f77b4; stroke: #1f77b4"/>
     <use xlink:href="#m88fdb842a3" x="704.18984" y="109.08" style="fill: #1f77b4; stroke: #1f77b4"/>
     <use xlink:href="#m88fdb842a3" x="707.173797" y="109.08" style="fill: #1f77b4; stroke: #1f77b4"/>
     <use xlink:href="#m88fdb842a3" x="710.157754" y="109.08" style="fill: #1f77b4; stroke: #1f77b4"/>
     <use xlink:href="#m88fdb842a3" x="713.141711" y="109.08" style="fill: #1f77b4; stroke: #1f77b4"/>
     <use xlink:href="#m88fdb842a3" x="716.125668" y="109.08" style="fill: #1f77b4; stroke: #1f77b4"/>
     <use xlink:href="#m88fdb842a3" x="719.109626" y="109.08" style="fill: #1f77b4; stroke: #1f77b4"/>
     <use xlink:href="#m88fdb842a3" x="722.093583" y="109.08" style="fill: #1f77b4; stroke: #1f77b4"/>
     <use xlink:href="#m88fdb842a3" x="725.07754" y="109.08" style="fill: #1f77b4; stroke: #1f77b4"/>
     <use xlink:href="#m88fdb842a3" x="728.061497" y="109.08" style="fill: #1f77b4; stroke: #1f77b4"/>
     <use xlink:href="#m88fdb842a3" x="731.045455" y="109.08" style="fill: #1f77b4; stroke: #1f77b4"/>
     <use xlink:href="#m88fdb842a3" x="734.029412" y="109.08" style="fill: #1f77b4; stroke: #1f77b4"/>
     <use xlink:href="#m88fdb842a3" x="737.013369" y="109.08" style="fill: #1f77b4; stroke: #1f77b4"/>
     <use xlink:href="#m88fdb842a3" x="739.997326" y="109.08" style="fill: #1f77b4; stroke: #1f77b4"/>
     <use xlink:href="#m88fdb842a3" x="742.981283" y="109.08" style="fill: #1f77b4; stroke: #1f77b4"/>
     <use xlink:href="#m88fdb842a3" x="745.965241" y="109.08" style="fill: #1f77b4; stroke: #1f77b4"/>
     <use xlink:href="#m88fdb842a3" x="748.949198" y="109.08" style="fill: #1f77b4; stroke: #1f77b4"/>
     <use xlink:href="#m88fdb842a3" x="751.933155" y="109.08" style="fill: #1f77b4; stroke: #1f77b4"/>
     <use xlink:href="#m88fdb842a3" x="754.917112" y="109.08" style="fill: #1f77b4; stroke: #1f77b4"/>
     <use xlink:href="#m88fdb842a3" x="757.90107" y="109.08" style="fill: #1f77b4; stroke: #1f77b4"/>
     <use xlink:href="#m88fdb842a3" x="760.885027" y="109.08" style="fill: #1f77b4; stroke: #1f77b4"/>
     <use xlink:href="#m88fdb842a3" x="763.868984" y="109.08" style="fill: #1f77b4; stroke: #1f77b4"/>
     <use xlink:href="#m88fdb842a3" x="766.852941" y="109.08" style="fill: #1f77b4; stroke: #1f77b4"/>
     <use xlink:href="#m88fdb842a3" x="769.836898" y="109.08" style="fill: #1f77b4; stroke: #1f77b4"/>
     <use xlink:href="#m88fdb842a3" x="772.820856" y="109.08" style="fill: #1f77b4; stroke: #1f77b4"/>
     <use xlink:href="#m88fdb842a3" x="775.804813" y="109.08" style="fill: #1f77b4; stroke: #1f77b4"/>
     <use xlink:href="#m88fdb842a3" x="778.78877" y="109.08" style="fill: #1f77b4; stroke: #1f77b4"/>
     <use xlink:href="#m88fdb842a3" x="781.772727" y="109.08" style="fill: #1f77b4; stroke: #1f77b4"/>
     <use xlink:href="#m88fdb842a3" x="784.756684" y="109.08" style="fill: #1f77b4; stroke: #1f77b4"/>
     <use xlink:href="#m88fdb842a3" x="787.740642" y="109.08" style="fill: #1f77b4; stroke: #1f77b4"/>
     <use xlink:href="#m88fdb842a3" x="790.724599" y="109.08" style="fill: #1f77b4; stroke: #1f77b4"/>
     <use xlink:href="#m88fdb842a3" x="793.708556" y="109.08" style="fill: #1f77b4; stroke: #1f77b4"/>
     <use xlink:href="#m88fdb842a3" x="796.692513" y="109.08" style="fill: #1f77b4; stroke: #1f77b4"/>
     <use xlink:href="#m88fdb842a3" x="799.676471" y="109.08" style="fill: #1f77b4; stroke: #1f77b4"/>
     <use xlink:href="#m88fdb842a3" x="802.660428" y="109.08" style="fill: #1f77b4; stroke: #1f77b4"/>
     <use xlink:href="#m88fdb842a3" x="805.644385" y="109.08" style="fill: #1f77b4; stroke: #1f77b4"/>
     <use xlink:href="#m88fdb842a3" x="808.628342" y="109.08" style="fill: #1f77b4; stroke: #1f77b4"/>
     <use xlink:href="#m88fdb842a3" x="811.612299" y="109.08" style="fill: #1f77b4; stroke: #1f77b4"/>
     <use xlink:href="#m88fdb842a3" x="814.596257" y="109.08" style="fill: #1f77b4; stroke: #1f77b4"/>
     <use xlink:href="#m88fdb842a3" x="817.580214" y="109.08" style="fill: #1f77b4; stroke: #1f77b4"/>
     <use xlink:href="#m88fdb842a3" x="820.564171" y="109.08" style="fill: #1f77b4; stroke: #1f77b4"/>
     <use xlink:href="#m88fdb842a3" x="823.548128" y="109.08" style="fill: #1f77b4; stroke: #1f77b4"/>
     <use xlink:href="#m88fdb842a3" x="826.532086" y="109.08" style="fill: #1f77b4; stroke: #1f77b4"/>
     <use xlink:href="#m88fdb842a3" x="829.516043" y="109.08" style="fill: #1f77b4; stroke: #1f77b4"/>
     <use xlink:href="#m88fdb842a3" x="832.5" y="109.08" style="fill: #1f77b4; stroke: #1f77b4"/>
     <use xlink:href="#m88fdb842a3" x="835.483957" y="109.08" style="fill: #1f77b4; stroke: #1f77b4"/>
     <use xlink:href="#m88fdb842a3" x="838.467914" y="109.08" style="fill: #1f77b4; stroke: #1f77b4"/>
     <use xlink:href="#m88fdb842a3" x="841.451872" y="109.08" style="fill: #1f77b4; stroke: #1f77b4"/>
     <use xlink:href="#m88fdb842a3" x="844.435829" y="109.08" style="fill: #1f77b4; stroke: #1f77b4"/>
     <use xlink:href="#m88fdb842a3" x="847.419786" y="109.08" style="fill: #1f77b4; stroke: #1f77b4"/>
     <use xlink:href="#m88fdb842a3" x="850.403743" y="109.08" style="fill: #1f77b4; stroke: #1f77b4"/>
     <use xlink:href="#m88fdb842a3" x="853.387701" y="109.08" style="fill: #1f77b4; stroke: #1f77b4"/>
     <use xlink:href="#m88fdb842a3" x="856.371658" y="109.08" style="fill: #1f77b4; stroke: #1f77b4"/>
     <use xlink:href="#m88fdb842a3" x="859.355615" y="109.08" style="fill: #1f77b4; stroke: #1f77b4"/>
     <use xlink:href="#m88fdb842a3" x="862.339572" y="109.08" style="fill: #1f77b4; stroke: #1f77b4"/>
     <use xlink:href="#m88fdb842a3" x="865.323529" y="109.08" style="fill: #1f77b4; stroke: #1f77b4"/>
     <use xlink:href="#m88fdb842a3" x="868.307487" y="109.08" style="fill: #1f77b4; stroke: #1f77b4"/>
     <use xlink:href="#m88fdb842a3" x="871.291444" y="109.08" style="fill: #1f77b4; stroke: #1f77b4"/>
     <use xlink:href="#m88fdb842a3" x="874.275401" y="109.08" style="fill: #1f77b4; stroke: #1f77b4"/>
     <use xlink:href="#m88fdb842a3" x="877.259358" y="109.08" style="fill: #1f77b4; stroke: #1f77b4"/>
     <use xlink:href="#m88fdb842a3" x="880.243316" y="109.08" style="fill: #1f77b4; stroke: #1f77b4"/>
     <use xlink:href="#m88fdb842a3" x="883.227273" y="109.08" style="fill: #1f77b4; stroke: #1f77b4"/>
     <use xlink:href="#m88fdb842a3" x="886.21123" y="109.08" style="fill: #1f77b4; stroke: #1f77b4"/>
     <use xlink:href="#m88fdb842a3" x="889.195187" y="109.08" style="fill: #1f77b4; stroke: #1f77b4"/>
     <use xlink:href="#m88fdb842a3" x="892.179144" y="109.08" style="fill: #1f77b4; stroke: #1f77b4"/>
     <use xlink:href="#m88fdb842a3" x="895.163102" y="109.08" style="fill: #1f77b4; stroke: #1f77b4"/>
     <use xlink:href="#m88fdb842a3" x="898.147059" y="109.08" style="fill: #1f77b4; stroke: #1f77b4"/>
     <use xlink:href="#m88fdb842a3" x="901.131016" y="109.08" style="fill: #1f77b4; stroke: #1f77b4"/>
     <use xlink:href="#m88fdb842a3" x="904.114973" y="109.08" style="fill: #1f77b4; stroke: #1f77b4"/>
     <use xlink:href="#m88fdb842a3" x="907.09893" y="109.08" style="fill: #1f77b4; stroke: #1f77b4"/>
     <use xlink:href="#m88fdb842a3" x="910.082888" y="109.08" style="fill: #1f77b4; stroke: #1f77b4"/>
     <use xlink:href="#m88fdb842a3" x="913.066845" y="109.08" style="fill: #1f77b4; stroke: #1f77b4"/>
     <use xlink:href="#m88fdb842a3" x="916.050802" y="109.08" style="fill: #1f77b4; stroke: #1f77b4"/>
     <use xlink:href="#m88fdb842a3" x="919.034759" y="109.08" style="fill: #1f77b4; stroke: #1f77b4"/>
     <use xlink:href="#m88fdb842a3" x="922.018717" y="109.08" style="fill: #1f77b4; stroke: #1f77b4"/>
     <use xlink:href="#m88fdb842a3" x="925.002674" y="109.08" style="fill: #1f77b4; stroke: #1f77b4"/>
     <use xlink:href="#m88fdb842a3" x="927.986631" y="109.08" style="fill: #1f77b4; stroke: #1f77b4"/>
     <use xlink:href="#m88fdb842a3" x="930.970588" y="109.08" style="fill: #1f77b4; stroke: #1f77b4"/>
     <use xlink:href="#m88fdb842a3" x="933.954545" y="109.08" style="fill: #1f77b4; stroke: #1f77b4"/>
    </g>
   </g>
   <g id="matplotlib.axis_1">
    <g id="xtick_1">
     <g id="line2d_1">
      <defs>
       <path id="m8bcec039e0" d="M 0 0 
L 0 3.5 
" style="stroke: #000000; stroke-width: 0.8"/>
      </defs>
      <g>
       <use xlink:href="#m8bcec039e0" x="173.045455" y="192.24" style="stroke: #000000; stroke-width: 0.8"/>
      </g>
     </g>
     <g id="text_1">
      <!-- 0 -->
      <g transform="translate(169.864205 206.838437) scale(0.1 -0.1)">
       <defs>
        <path id="DejaVuSans-30" d="M 2034 4250 
Q 1547 4250 1301 3770 
Q 1056 3291 1056 2328 
Q 1056 1369 1301 889 
Q 1547 409 2034 409 
Q 2525 409 2770 889 
Q 3016 1369 3016 2328 
Q 3016 3291 2770 3770 
Q 2525 4250 2034 4250 
z
M 2034 4750 
Q 2819 4750 3233 4129 
Q 3647 3509 3647 2328 
Q 3647 1150 3233 529 
Q 2819 -91 2034 -91 
Q 1250 -91 836 529 
Q 422 1150 422 2328 
Q 422 3509 836 4129 
Q 1250 4750 2034 4750 
z
" transform="scale(0.015625)"/>
       </defs>
       <use xlink:href="#DejaVuSans-30"/>
      </g>
     </g>
    </g>
    <g id="xtick_2">
     <g id="line2d_2">
      <g>
       <use xlink:href="#m8bcec039e0" x="322.243316" y="192.24" style="stroke: #000000; stroke-width: 0.8"/>
      </g>
     </g>
     <g id="text_2">
      <!-- 50 -->
      <g transform="translate(315.880816 206.838437) scale(0.1 -0.1)">
       <defs>
        <path id="DejaVuSans-35" d="M 691 4666 
L 3169 4666 
L 3169 4134 
L 1269 4134 
L 1269 2991 
Q 1406 3038 1543 3061 
Q 1681 3084 1819 3084 
Q 2600 3084 3056 2656 
Q 3513 2228 3513 1497 
Q 3513 744 3044 326 
Q 2575 -91 1722 -91 
Q 1428 -91 1123 -41 
Q 819 9 494 109 
L 494 744 
Q 775 591 1075 516 
Q 1375 441 1709 441 
Q 2250 441 2565 725 
Q 2881 1009 2881 1497 
Q 2881 1984 2565 2268 
Q 2250 2553 1709 2553 
Q 1456 2553 1204 2497 
Q 953 2441 691 2322 
L 691 4666 
z
" transform="scale(0.015625)"/>
       </defs>
       <use xlink:href="#DejaVuSans-35"/>
       <use xlink:href="#DejaVuSans-30" x="63.623047"/>
      </g>
     </g>
    </g>
    <g id="xtick_3">
     <g id="line2d_3">
      <g>
       <use xlink:href="#m8bcec039e0" x="471.441176" y="192.24" style="stroke: #000000; stroke-width: 0.8"/>
      </g>
     </g>
     <g id="text_3">
      <!-- 100 -->
      <g transform="translate(461.897426 206.838437) scale(0.1 -0.1)">
       <defs>
        <path id="DejaVuSans-31" d="M 794 531 
L 1825 531 
L 1825 4091 
L 703 3866 
L 703 4441 
L 1819 4666 
L 2450 4666 
L 2450 531 
L 3481 531 
L 3481 0 
L 794 0 
L 794 531 
z
" transform="scale(0.015625)"/>
       </defs>
       <use xlink:href="#DejaVuSans-31"/>
       <use xlink:href="#DejaVuSans-30" x="63.623047"/>
       <use xlink:href="#DejaVuSans-30" x="127.246094"/>
      </g>
     </g>
    </g>
    <g id="xtick_4">
     <g id="line2d_4">
      <g>
       <use xlink:href="#m8bcec039e0" x="620.639037" y="192.24" style="stroke: #000000; stroke-width: 0.8"/>
      </g>
     </g>
     <g id="text_4">
      <!-- 150 -->
      <g transform="translate(611.095287 206.838437) scale(0.1 -0.1)">
       <use xlink:href="#DejaVuSans-31"/>
       <use xlink:href="#DejaVuSans-35" x="63.623047"/>
       <use xlink:href="#DejaVuSans-30" x="127.246094"/>
      </g>
     </g>
    </g>
    <g id="xtick_5">
     <g id="line2d_5">
      <g>
       <use xlink:href="#m8bcec039e0" x="769.836898" y="192.24" style="stroke: #000000; stroke-width: 0.8"/>
      </g>
     </g>
     <g id="text_5">
      <!-- 200 -->
      <g transform="translate(760.293148 206.838437) scale(0.1 -0.1)">
       <defs>
        <path id="DejaVuSans-32" d="M 1228 531 
L 3431 531 
L 3431 0 
L 469 0 
L 469 531 
Q 828 903 1448 1529 
Q 2069 2156 2228 2338 
Q 2531 2678 2651 2914 
Q 2772 3150 2772 3378 
Q 2772 3750 2511 3984 
Q 2250 4219 1831 4219 
Q 1534 4219 1204 4116 
Q 875 4013 500 3803 
L 500 4441 
Q 881 4594 1212 4672 
Q 1544 4750 1819 4750 
Q 2544 4750 2975 4387 
Q 3406 4025 3406 3419 
Q 3406 3131 3298 2873 
Q 3191 2616 2906 2266 
Q 2828 2175 2409 1742 
Q 1991 1309 1228 531 
z
" transform="scale(0.015625)"/>
       </defs>
       <use xlink:href="#DejaVuSans-32"/>
       <use xlink:href="#DejaVuSans-30" x="63.623047"/>
       <use xlink:href="#DejaVuSans-30" x="127.246094"/>
      </g>
     </g>
    </g>
    <g id="xtick_6">
     <g id="line2d_6">
      <g>
       <use xlink:href="#m8bcec039e0" x="919.034759" y="192.24" style="stroke: #000000; stroke-width: 0.8"/>
      </g>
     </g>
     <g id="text_6">
      <!-- 250 -->
      <g transform="translate(909.491009 206.838437) scale(0.1 -0.1)">
       <use xlink:href="#DejaVuSans-32"/>
       <use xlink:href="#DejaVuSans-35" x="63.623047"/>
       <use xlink:href="#DejaVuSans-30" x="127.246094"/>
      </g>
     </g>
    </g>
   </g>
   <g id="matplotlib.axis_2">
    <g id="ytick_1">
     <g id="line2d_7">
      <defs>
       <path id="m9a07f1ed84" d="M 0 0 
L -3.5 0 
" style="stroke: #000000; stroke-width: 0.8"/>
      </defs>
      <g>
       <use xlink:href="#m9a07f1ed84" x="135" y="169.56" style="stroke: #000000; stroke-width: 0.8"/>
      </g>
     </g>
     <g id="text_7">
      <!-- −0.04 -->
      <g transform="translate(97.354687 173.359219) scale(0.1 -0.1)">
       <defs>
        <path id="DejaVuSans-2212" d="M 678 2272 
L 4684 2272 
L 4684 1741 
L 678 1741 
L 678 2272 
z
" transform="scale(0.015625)"/>
        <path id="DejaVuSans-2e" d="M 684 794 
L 1344 794 
L 1344 0 
L 684 0 
L 684 794 
z
" transform="scale(0.015625)"/>
        <path id="DejaVuSans-34" d="M 2419 4116 
L 825 1625 
L 2419 1625 
L 2419 4116 
z
M 2253 4666 
L 3047 4666 
L 3047 1625 
L 3713 1625 
L 3713 1100 
L 3047 1100 
L 3047 0 
L 2419 0 
L 2419 1100 
L 313 1100 
L 313 1709 
L 2253 4666 
z
" transform="scale(0.015625)"/>
       </defs>
       <use xlink:href="#DejaVuSans-2212"/>
       <use xlink:href="#DejaVuSans-30" x="83.789062"/>
       <use xlink:href="#DejaVuSans-2e" x="147.412109"/>
       <use xlink:href="#DejaVuSans-30" x="179.199219"/>
       <use xlink:href="#DejaVuSans-34" x="242.822266"/>
      </g>
     </g>
    </g>
    <g id="ytick_2">
     <g id="line2d_8">
      <g>
       <use xlink:href="#m9a07f1ed84" x="135" y="139.32" style="stroke: #000000; stroke-width: 0.8"/>
      </g>
     </g>
     <g id="text_8">
      <!-- −0.02 -->
      <g transform="translate(97.354687 143.119219) scale(0.1 -0.1)">
       <use xlink:href="#DejaVuSans-2212"/>
       <use xlink:href="#DejaVuSans-30" x="83.789062"/>
       <use xlink:href="#DejaVuSans-2e" x="147.412109"/>
       <use xlink:href="#DejaVuSans-30" x="179.199219"/>
       <use xlink:href="#DejaVuSans-32" x="242.822266"/>
      </g>
     </g>
    </g>
    <g id="ytick_3">
     <g id="line2d_9">
      <g>
       <use xlink:href="#m9a07f1ed84" x="135" y="109.08" style="stroke: #000000; stroke-width: 0.8"/>
      </g>
     </g>
     <g id="text_9">
      <!-- 0.00 -->
      <g transform="translate(105.734375 112.879219) scale(0.1 -0.1)">
       <use xlink:href="#DejaVuSans-30"/>
       <use xlink:href="#DejaVuSans-2e" x="63.623047"/>
       <use xlink:href="#DejaVuSans-30" x="95.410156"/>
       <use xlink:href="#DejaVuSans-30" x="159.033203"/>
      </g>
     </g>
    </g>
    <g id="ytick_4">
     <g id="line2d_10">
      <g>
       <use xlink:href="#m9a07f1ed84" x="135" y="78.84" style="stroke: #000000; stroke-width: 0.8"/>
      </g>
     </g>
     <g id="text_10">
      <!-- 0.02 -->
      <g transform="translate(105.734375 82.639219) scale(0.1 -0.1)">
       <use xlink:href="#DejaVuSans-30"/>
       <use xlink:href="#DejaVuSans-2e" x="63.623047"/>
       <use xlink:href="#DejaVuSans-30" x="95.410156"/>
       <use xlink:href="#DejaVuSans-32" x="159.033203"/>
      </g>
     </g>
    </g>
    <g id="ytick_5">
     <g id="line2d_11">
      <g>
       <use xlink:href="#m9a07f1ed84" x="135" y="48.6" style="stroke: #000000; stroke-width: 0.8"/>
      </g>
     </g>
     <g id="text_11">
      <!-- 0.04 -->
      <g transform="translate(105.734375 52.399219) scale(0.1 -0.1)">
       <use xlink:href="#DejaVuSans-30"/>
       <use xlink:href="#DejaVuSans-2e" x="63.623047"/>
       <use xlink:href="#DejaVuSans-30" x="95.410156"/>
       <use xlink:href="#DejaVuSans-34" x="159.033203"/>
      </g>
     </g>
    </g>
   </g>
   <g id="patch_3">
    <path d="M 135 192.24 
L 135 25.92 
" style="fill: none; stroke: #000000; stroke-width: 0.8; stroke-linejoin: miter; stroke-linecap: square"/>
   </g>
   <g id="patch_4">
    <path d="M 972 192.24 
L 972 25.92 
" style="fill: none; stroke: #000000; stroke-width: 0.8; stroke-linejoin: miter; stroke-linecap: square"/>
   </g>
   <g id="patch_5">
    <path d="M 135 192.24 
L 972 192.24 
" style="fill: none; stroke: #000000; stroke-width: 0.8; stroke-linejoin: miter; stroke-linecap: square"/>
   </g>
   <g id="patch_6">
    <path d="M 135 25.92 
L 972 25.92 
" style="fill: none; stroke: #000000; stroke-width: 0.8; stroke-linejoin: miter; stroke-linecap: square"/>
   </g>
   <g id="text_12">
    <!-- FLOAT_DIFF -->
    <g transform="translate(518.709375 19.92) scale(0.12 -0.12)">
     <defs>
      <path id="DejaVuSans-46" d="M 628 4666 
L 3309 4666 
L 3309 4134 
L 1259 4134 
L 1259 2759 
L 3109 2759 
L 3109 2228 
L 1259 2228 
L 1259 0 
L 628 0 
L 628 4666 
z
" transform="scale(0.015625)"/>
      <path id="DejaVuSans-4c" d="M 628 4666 
L 1259 4666 
L 1259 531 
L 3531 531 
L 3531 0 
L 628 0 
L 628 4666 
z
" transform="scale(0.015625)"/>
      <path id="DejaVuSans-4f" d="M 2522 4238 
Q 1834 4238 1429 3725 
Q 1025 3213 1025 2328 
Q 1025 1447 1429 934 
Q 1834 422 2522 422 
Q 3209 422 3611 934 
Q 4013 1447 4013 2328 
Q 4013 3213 3611 3725 
Q 3209 4238 2522 4238 
z
M 2522 4750 
Q 3503 4750 4090 4092 
Q 4678 3434 4678 2328 
Q 4678 1225 4090 567 
Q 3503 -91 2522 -91 
Q 1538 -91 948 565 
Q 359 1222 359 2328 
Q 359 3434 948 4092 
Q 1538 4750 2522 4750 
z
" transform="scale(0.015625)"/>
      <path id="DejaVuSans-41" d="M 2188 4044 
L 1331 1722 
L 3047 1722 
L 2188 4044 
z
M 1831 4666 
L 2547 4666 
L 4325 0 
L 3669 0 
L 3244 1197 
L 1141 1197 
L 716 0 
L 50 0 
L 1831 4666 
z
" transform="scale(0.015625)"/>
      <path id="DejaVuSans-54" d="M -19 4666 
L 3928 4666 
L 3928 4134 
L 2272 4134 
L 2272 0 
L 1638 0 
L 1638 4134 
L -19 4134 
L -19 4666 
z
" transform="scale(0.015625)"/>
      <path id="DejaVuSans-5f" d="M 3263 -1063 
L 3263 -1509 
L -63 -1509 
L -63 -1063 
L 3263 -1063 
z
" transform="scale(0.015625)"/>
      <path id="DejaVuSans-44" d="M 1259 4147 
L 1259 519 
L 2022 519 
Q 2988 519 3436 956 
Q 3884 1394 3884 2338 
Q 3884 3275 3436 3711 
Q 2988 4147 2022 4147 
L 1259 4147 
z
M 628 4666 
L 1925 4666 
Q 3281 4666 3915 4102 
Q 4550 3538 4550 2338 
Q 4550 1131 3912 565 
Q 3275 0 1925 0 
L 628 0 
L 628 4666 
z
" transform="scale(0.015625)"/>
      <path id="DejaVuSans-49" d="M 628 4666 
L 1259 4666 
L 1259 0 
L 628 0 
L 628 4666 
z
" transform="scale(0.015625)"/>
     </defs>
     <use xlink:href="#DejaVuSans-46"/>
     <use xlink:href="#DejaVuSans-4c" x="57.519531"/>
     <use xlink:href="#DejaVuSans-4f" x="109.607422"/>
     <use xlink:href="#DejaVuSans-41" x="186.568359"/>
     <use xlink:href="#DejaVuSans-54" x="247.226562"/>
     <use xlink:href="#DejaVuSans-5f" x="308.310547"/>
     <use xlink:href="#DejaVuSans-44" x="358.310547"/>
     <use xlink:href="#DejaVuSans-49" x="435.3125"/>
     <use xlink:href="#DejaVuSans-46" x="464.804688"/>
     <use xlink:href="#DejaVuSans-46" x="522.324219"/>
    </g>
   </g>
  </g>
 </g>
 <defs>
  <clipPath id="p57c6843450">
   <rect x="135" y="25.92" width="837" height="166.32"/>
  </clipPath>
 </defs>
</svg>
