<?xml version="1.0" encoding="utf-8" standalone="no"?>
<!DOCTYPE svg PUBLIC "-//W3C//DTD SVG 1.1//EN"
  "http://www.w3.org/Graphics/SVG/1.1/DTD/svg11.dtd">
<svg xmlns:xlink="http://www.w3.org/1999/xlink" width="1080pt" height="216pt" viewBox="0 0 1080 216" xmlns="http://www.w3.org/2000/svg" version="1.1">
 <metadata>
  <rdf:RDF xmlns:dc="http://purl.org/dc/elements/1.1/" xmlns:cc="http://creativecommons.org/ns#" xmlns:rdf="http://www.w3.org/1999/02/22-rdf-syntax-ns#">
   <cc:Work>
    <dc:type rdf:resource="http://purl.org/dc/dcmitype/StillImage"/>
    <dc:date>2025-05-10T21:29:05.733237</dc:date>
    <dc:format>image/svg+xml</dc:format>
    <dc:creator>
     <cc:Agent>
      <dc:title>Matplotlib v3.9.1, https://matplotlib.org/</dc:title>
     </cc:Agent>
    </dc:creator>
   </cc:Work>
  </rdf:RDF>
 </metadata>
 <defs>
  <style type="text/css">*{stroke-linejoin: round; stroke-linecap: butt}</style>
 </defs>
 <g id="figure_1">
  <g id="patch_1">
   <path d="M 0 216 
L 1080 216 
L 1080 0 
L 0 0 
z
" style="fill: #ffffff"/>
  </g>
  <g id="axes_1">
   <g id="patch_2">
    <path d="M 135 192.24 
L 972 192.24 
L 972 25.92 
L 135 25.92 
z
" style="fill: #ffffff"/>
   </g>
   <g id="PathCollection_1">
    <defs>
     <path id="m2c3824edf5" d="M 0 3 
C 0.795609 3 1.55874 2.683901 2.12132 2.12132 
C 2.683901 1.55874 3 0.795609 3 0 
C 3 -0.795609 2.683901 -1.55874 2.12132 -2.12132 
C 1.55874 -2.683901 0.795609 -3 0 -3 
C -0.795609 -3 -1.55874 -2.683901 -2.12132 -2.12132 
C -2.683901 -1.55874 -3 -0.795609 -3 0 
C -3 0.795609 -2.683901 1.55874 -2.12132 2.12132 
C -1.55874 2.683901 -0.795609 3 0 3 
z
" style="stroke: #1f77b4"/>
    </defs>
    <g clip-path="url(#p42e15f2049)">
     <use xlink:href="#m2c3824edf5" x="173.045455" y="148.106028" style="fill: #1f77b4; stroke: #1f77b4"/>
     <use xlink:href="#m2c3824edf5" x="176.029412" y="113.124405" style="fill: #1f77b4; stroke: #1f77b4"/>
     <use xlink:href="#m2c3824edf5" x="179.013369" y="87.500333" style="fill: #1f77b4; stroke: #1f77b4"/>
     <use xlink:href="#m2c3824edf5" x="181.997326" y="158.553348" style="fill: #1f77b4; stroke: #1f77b4"/>
     <use xlink:href="#m2c3824edf5" x="184.981283" y="101.212118" style="fill: #1f77b4; stroke: #1f77b4"/>
     <use xlink:href="#m2c3824edf5" x="187.965241" y="158.456876" style="fill: #1f77b4; stroke: #1f77b4"/>
     <use xlink:href="#m2c3824edf5" x="190.949198" y="104.598111" style="fill: #1f77b4; stroke: #1f77b4"/>
     <use xlink:href="#m2c3824edf5" x="193.933155" y="103.776375" style="fill: #1f77b4; stroke: #1f77b4"/>
     <use xlink:href="#m2c3824edf5" x="196.917112" y="163.516157" style="fill: #1f77b4; stroke: #1f77b4"/>
     <use xlink:href="#m2c3824edf5" x="199.90107" y="134.655016" style="fill: #1f77b4; stroke: #1f77b4"/>
     <use xlink:href="#m2c3824edf5" x="202.885027" y="179.589732" style="fill: #1f77b4; stroke: #1f77b4"/>
     <use xlink:href="#m2c3824edf5" x="205.868984" y="147.793975" style="fill: #1f77b4; stroke: #1f77b4"/>
     <use xlink:href="#m2c3824edf5" x="208.852941" y="122.137745" style="fill: #1f77b4; stroke: #1f77b4"/>
     <use xlink:href="#m2c3824edf5" x="211.836898" y="184.68" style="fill: #1f77b4; stroke: #1f77b4"/>
     <use xlink:href="#m2c3824edf5" x="214.820856" y="182.469555" style="fill: #1f77b4; stroke: #1f77b4"/>
     <use xlink:href="#m2c3824edf5" x="217.804813" y="117.785931" style="fill: #1f77b4; stroke: #1f77b4"/>
     <use xlink:href="#m2c3824edf5" x="220.78877" y="148.106028" style="fill: #1f77b4; stroke: #1f77b4"/>
     <use xlink:href="#m2c3824edf5" x="223.772727" y="117.785931" style="fill: #1f77b4; stroke: #1f77b4"/>
     <use xlink:href="#m2c3824edf5" x="226.756684" y="182.469555" style="fill: #1f77b4; stroke: #1f77b4"/>
     <use xlink:href="#m2c3824edf5" x="229.740642" y="184.68" style="fill: #1f77b4; stroke: #1f77b4"/>
     <use xlink:href="#m2c3824edf5" x="232.724599" y="122.137745" style="fill: #1f77b4; stroke: #1f77b4"/>
     <use xlink:href="#m2c3824edf5" x="235.708556" y="147.793975" style="fill: #1f77b4; stroke: #1f77b4"/>
     <use xlink:href="#m2c3824edf5" x="238.692513" y="179.589732" style="fill: #1f77b4; stroke: #1f77b4"/>
     <use xlink:href="#m2c3824edf5" x="241.676471" y="134.655016" style="fill: #1f77b4; stroke: #1f77b4"/>
     <use xlink:href="#m2c3824edf5" x="244.660428" y="163.516157" style="fill: #1f77b4; stroke: #1f77b4"/>
     <use xlink:href="#m2c3824edf5" x="247.644385" y="103.776375" style="fill: #1f77b4; stroke: #1f77b4"/>
     <use xlink:href="#m2c3824edf5" x="250.628342" y="104.598111" style="fill: #1f77b4; stroke: #1f77b4"/>
     <use xlink:href="#m2c3824edf5" x="253.612299" y="158.456876" style="fill: #1f77b4; stroke: #1f77b4"/>
     <use xlink:href="#m2c3824edf5" x="256.596257" y="101.212118" style="fill: #1f77b4; stroke: #1f77b4"/>
     <use xlink:href="#m2c3824edf5" x="259.580214" y="158.553348" style="fill: #1f77b4; stroke: #1f77b4"/>
     <use xlink:href="#m2c3824edf5" x="262.564171" y="87.500333" style="fill: #1f77b4; stroke: #1f77b4"/>
     <use xlink:href="#m2c3824edf5" x="265.548128" y="113.124405" style="fill: #1f77b4; stroke: #1f77b4"/>
     <use xlink:href="#m2c3824edf5" x="268.532086" y="148.106028" style="fill: #1f77b4; stroke: #1f77b4"/>
     <use xlink:href="#m2c3824edf5" x="271.516043" y="105.034659" style="fill: #1f77b4; stroke: #1f77b4"/>
     <use xlink:href="#m2c3824edf5" x="274.5" y="130.659277" style="fill: #1f77b4; stroke: #1f77b4"/>
     <use xlink:href="#m2c3824edf5" x="277.483957" y="59.606886" style="fill: #1f77b4; stroke: #1f77b4"/>
     <use xlink:href="#m2c3824edf5" x="280.467914" y="116.947492" style="fill: #1f77b4; stroke: #1f77b4"/>
     <use xlink:href="#m2c3824edf5" x="283.451872" y="59.702734" style="fill: #1f77b4; stroke: #1f77b4"/>
     <use xlink:href="#m2c3824edf5" x="286.435829" y="113.561498" style="fill: #1f77b4; stroke: #1f77b4"/>
     <use xlink:href="#m2c3824edf5" x="289.419786" y="114.383234" style="fill: #1f77b4; stroke: #1f77b4"/>
     <use xlink:href="#m2c3824edf5" x="292.403743" y="54.64314" style="fill: #1f77b4; stroke: #1f77b4"/>
     <use xlink:href="#m2c3824edf5" x="295.387701" y="83.504125" style="fill: #1f77b4; stroke: #1f77b4"/>
     <use xlink:href="#m2c3824edf5" x="298.371658" y="38.570503" style="fill: #1f77b4; stroke: #1f77b4"/>
     <use xlink:href="#m2c3824edf5" x="301.355615" y="70.365869" style="fill: #1f77b4; stroke: #1f77b4"/>
     <use xlink:href="#m2c3824edf5" x="304.339572" y="96.021709" style="fill: #1f77b4; stroke: #1f77b4"/>
     <use xlink:href="#m2c3824edf5" x="307.323529" y="33.48" style="fill: #1f77b4; stroke: #1f77b4"/>
     <use xlink:href="#m2c3824edf5" x="310.307487" y="35.689509" style="fill: #1f77b4; stroke: #1f77b4"/>
     <use xlink:href="#m2c3824edf5" x="313.291444" y="100.373835" style="fill: #1f77b4; stroke: #1f77b4"/>
     <use xlink:href="#m2c3824edf5" x="316.275401" y="70.053581" style="fill: #1f77b4; stroke: #1f77b4"/>
     <use xlink:href="#m2c3824edf5" x="319.259358" y="100.373835" style="fill: #1f77b4; stroke: #1f77b4"/>
     <use xlink:href="#m2c3824edf5" x="322.243316" y="35.689509" style="fill: #1f77b4; stroke: #1f77b4"/>
     <use xlink:href="#m2c3824edf5" x="325.227273" y="33.48" style="fill: #1f77b4; stroke: #1f77b4"/>
     <use xlink:href="#m2c3824edf5" x="328.21123" y="96.021709" style="fill: #1f77b4; stroke: #1f77b4"/>
     <use xlink:href="#m2c3824edf5" x="331.195187" y="70.365869" style="fill: #1f77b4; stroke: #1f77b4"/>
     <use xlink:href="#m2c3824edf5" x="334.179144" y="38.570503" style="fill: #1f77b4; stroke: #1f77b4"/>
     <use xlink:href="#m2c3824edf5" x="337.163102" y="83.504125" style="fill: #1f77b4; stroke: #1f77b4"/>
     <use xlink:href="#m2c3824edf5" x="340.147059" y="54.64314" style="fill: #1f77b4; stroke: #1f77b4"/>
     <use xlink:href="#m2c3824edf5" x="343.131016" y="114.383234" style="fill: #1f77b4; stroke: #1f77b4"/>
     <use xlink:href="#m2c3824edf5" x="346.114973" y="113.561498" style="fill: #1f77b4; stroke: #1f77b4"/>
     <use xlink:href="#m2c3824edf5" x="349.09893" y="59.702734" style="fill: #1f77b4; stroke: #1f77b4"/>
     <use xlink:href="#m2c3824edf5" x="352.082888" y="116.947492" style="fill: #1f77b4; stroke: #1f77b4"/>
     <use xlink:href="#m2c3824edf5" x="355.066845" y="59.606886" style="fill: #1f77b4; stroke: #1f77b4"/>
     <use xlink:href="#m2c3824edf5" x="358.050802" y="130.659277" style="fill: #1f77b4; stroke: #1f77b4"/>
     <use xlink:href="#m2c3824edf5" x="361.034759" y="105.034659" style="fill: #1f77b4; stroke: #1f77b4"/>
     <use xlink:href="#m2c3824edf5" x="364.018717" y="148.106028" style="fill: #1f77b4; stroke: #1f77b4"/>
     <use xlink:href="#m2c3824edf5" x="367.002674" y="113.124405" style="fill: #1f77b4; stroke: #1f77b4"/>
     <use xlink:href="#m2c3824edf5" x="369.986631" y="87.500333" style="fill: #1f77b4; stroke: #1f77b4"/>
     <use xlink:href="#m2c3824edf5" x="372.970588" y="158.553348" style="fill: #1f77b4; stroke: #1f77b4"/>
     <use xlink:href="#m2c3824edf5" x="375.954545" y="101.212118" style="fill: #1f77b4; stroke: #1f77b4"/>
     <use xlink:href="#m2c3824edf5" x="378.938503" y="158.456876" style="fill: #1f77b4; stroke: #1f77b4"/>
     <use xlink:href="#m2c3824edf5" x="381.92246" y="104.598111" style="fill: #1f77b4; stroke: #1f77b4"/>
     <use xlink:href="#m2c3824edf5" x="384.906417" y="103.776375" style="fill: #1f77b4; stroke: #1f77b4"/>
     <use xlink:href="#m2c3824edf5" x="387.890374" y="163.516157" style="fill: #1f77b4; stroke: #1f77b4"/>
     <use xlink:href="#m2c3824edf5" x="390.874332" y="134.655016" style="fill: #1f77b4; stroke: #1f77b4"/>
     <use xlink:href="#m2c3824edf5" x="393.858289" y="179.589732" style="fill: #1f77b4; stroke: #1f77b4"/>
     <use xlink:href="#m2c3824edf5" x="396.842246" y="147.793975" style="fill: #1f77b4; stroke: #1f77b4"/>
     <use xlink:href="#m2c3824edf5" x="399.826203" y="122.137745" style="fill: #1f77b4; stroke: #1f77b4"/>
     <use xlink:href="#m2c3824edf5" x="402.81016" y="184.68" style="fill: #1f77b4; stroke: #1f77b4"/>
     <use xlink:href="#m2c3824edf5" x="405.794118" y="182.469555" style="fill: #1f77b4; stroke: #1f77b4"/>
     <use xlink:href="#m2c3824edf5" x="408.778075" y="117.785931" style="fill: #1f77b4; stroke: #1f77b4"/>
     <use xlink:href="#m2c3824edf5" x="411.762032" y="148.106028" style="fill: #1f77b4; stroke: #1f77b4"/>
     <use xlink:href="#m2c3824edf5" x="414.745989" y="117.785931" style="fill: #1f77b4; stroke: #1f77b4"/>
     <use xlink:href="#m2c3824edf5" x="417.729947" y="182.469555" style="fill: #1f77b4; stroke: #1f77b4"/>
     <use xlink:href="#m2c3824edf5" x="420.713904" y="184.68" style="fill: #1f77b4; stroke: #1f77b4"/>
     <use xlink:href="#m2c3824edf5" x="423.697861" y="122.137745" style="fill: #1f77b4; stroke: #1f77b4"/>
     <use xlink:href="#m2c3824edf5" x="426.681818" y="147.793975" style="fill: #1f77b4; stroke: #1f77b4"/>
     <use xlink:href="#m2c3824edf5" x="429.665775" y="179.589732" style="fill: #1f77b4; stroke: #1f77b4"/>
     <use xlink:href="#m2c3824edf5" x="432.649733" y="134.655016" style="fill: #1f77b4; stroke: #1f77b4"/>
     <use xlink:href="#m2c3824edf5" x="435.63369" y="163.516157" style="fill: #1f77b4; stroke: #1f77b4"/>
     <use xlink:href="#m2c3824edf5" x="438.617647" y="103.776375" style="fill: #1f77b4; stroke: #1f77b4"/>
     <use xlink:href="#m2c3824edf5" x="441.601604" y="104.598111" style="fill: #1f77b4; stroke: #1f77b4"/>
     <use xlink:href="#m2c3824edf5" x="444.585561" y="158.456876" style="fill: #1f77b4; stroke: #1f77b4"/>
     <use xlink:href="#m2c3824edf5" x="447.569519" y="101.212118" style="fill: #1f77b4; stroke: #1f77b4"/>
     <use xlink:href="#m2c3824edf5" x="450.553476" y="158.553348" style="fill: #1f77b4; stroke: #1f77b4"/>
     <use xlink:href="#m2c3824edf5" x="453.537433" y="87.500333" style="fill: #1f77b4; stroke: #1f77b4"/>
     <use xlink:href="#m2c3824edf5" x="456.52139" y="113.124405" style="fill: #1f77b4; stroke: #1f77b4"/>
     <use xlink:href="#m2c3824edf5" x="459.505348" y="148.106028" style="fill: #1f77b4; stroke: #1f77b4"/>
     <use xlink:href="#m2c3824edf5" x="462.489305" y="105.034659" style="fill: #1f77b4; stroke: #1f77b4"/>
     <use xlink:href="#m2c3824edf5" x="465.473262" y="130.659277" style="fill: #1f77b4; stroke: #1f77b4"/>
     <use xlink:href="#m2c3824edf5" x="468.457219" y="59.606886" style="fill: #1f77b4; stroke: #1f77b4"/>
     <use xlink:href="#m2c3824edf5" x="471.441176" y="116.947492" style="fill: #1f77b4; stroke: #1f77b4"/>
     <use xlink:href="#m2c3824edf5" x="474.425134" y="59.702734" style="fill: #1f77b4; stroke: #1f77b4"/>
     <use xlink:href="#m2c3824edf5" x="477.409091" y="113.561498" style="fill: #1f77b4; stroke: #1f77b4"/>
     <use xlink:href="#m2c3824edf5" x="480.393048" y="114.383234" style="fill: #1f77b4; stroke: #1f77b4"/>
     <use xlink:href="#m2c3824edf5" x="483.377005" y="54.64314" style="fill: #1f77b4; stroke: #1f77b4"/>
     <use xlink:href="#m2c3824edf5" x="486.360963" y="83.504125" style="fill: #1f77b4; stroke: #1f77b4"/>
     <use xlink:href="#m2c3824edf5" x="489.34492" y="38.570503" style="fill: #1f77b4; stroke: #1f77b4"/>
     <use xlink:href="#m2c3824edf5" x="492.328877" y="70.365869" style="fill: #1f77b4; stroke: #1f77b4"/>
     <use xlink:href="#m2c3824edf5" x="495.312834" y="96.021709" style="fill: #1f77b4; stroke: #1f77b4"/>
     <use xlink:href="#m2c3824edf5" x="498.296791" y="33.48" style="fill: #1f77b4; stroke: #1f77b4"/>
     <use xlink:href="#m2c3824edf5" x="501.280749" y="35.689509" style="fill: #1f77b4; stroke: #1f77b4"/>
     <use xlink:href="#m2c3824edf5" x="504.264706" y="100.373835" style="fill: #1f77b4; stroke: #1f77b4"/>
     <use xlink:href="#m2c3824edf5" x="507.248663" y="70.053581" style="fill: #1f77b4; stroke: #1f77b4"/>
     <use xlink:href="#m2c3824edf5" x="510.23262" y="100.373835" style="fill: #1f77b4; stroke: #1f77b4"/>
     <use xlink:href="#m2c3824edf5" x="513.216578" y="35.689509" style="fill: #1f77b4; stroke: #1f77b4"/>
     <use xlink:href="#m2c3824edf5" x="516.200535" y="33.48" style="fill: #1f77b4; stroke: #1f77b4"/>
     <use xlink:href="#m2c3824edf5" x="519.184492" y="96.021709" style="fill: #1f77b4; stroke: #1f77b4"/>
     <use xlink:href="#m2c3824edf5" x="522.168449" y="70.365869" style="fill: #1f77b4; stroke: #1f77b4"/>
     <use xlink:href="#m2c3824edf5" x="525.152406" y="38.570503" style="fill: #1f77b4; stroke: #1f77b4"/>
     <use xlink:href="#m2c3824edf5" x="528.136364" y="83.504125" style="fill: #1f77b4; stroke: #1f77b4"/>
     <use xlink:href="#m2c3824edf5" x="531.120321" y="54.64314" style="fill: #1f77b4; stroke: #1f77b4"/>
     <use xlink:href="#m2c3824edf5" x="534.104278" y="114.383234" style="fill: #1f77b4; stroke: #1f77b4"/>
     <use xlink:href="#m2c3824edf5" x="537.088235" y="113.561498" style="fill: #1f77b4; stroke: #1f77b4"/>
     <use xlink:href="#m2c3824edf5" x="540.072193" y="59.702734" style="fill: #1f77b4; stroke: #1f77b4"/>
     <use xlink:href="#m2c3824edf5" x="543.05615" y="116.947492" style="fill: #1f77b4; stroke: #1f77b4"/>
     <use xlink:href="#m2c3824edf5" x="546.040107" y="59.606886" style="fill: #1f77b4; stroke: #1f77b4"/>
     <use xlink:href="#m2c3824edf5" x="549.024064" y="130.659277" style="fill: #1f77b4; stroke: #1f77b4"/>
     <use xlink:href="#m2c3824edf5" x="552.008021" y="105.034659" style="fill: #1f77b4; stroke: #1f77b4"/>
     <use xlink:href="#m2c3824edf5" x="554.991979" y="148.106028" style="fill: #1f77b4; stroke: #1f77b4"/>
     <use xlink:href="#m2c3824edf5" x="557.975936" y="113.124405" style="fill: #1f77b4; stroke: #1f77b4"/>
     <use xlink:href="#m2c3824edf5" x="560.959893" y="87.500333" style="fill: #1f77b4; stroke: #1f77b4"/>
     <use xlink:href="#m2c3824edf5" x="563.94385" y="158.553348" style="fill: #1f77b4; stroke: #1f77b4"/>
     <use xlink:href="#m2c3824edf5" x="566.927807" y="101.212118" style="fill: #1f77b4; stroke: #1f77b4"/>
     <use xlink:href="#m2c3824edf5" x="569.911765" y="158.456876" style="fill: #1f77b4; stroke: #1f77b4"/>
     <use xlink:href="#m2c3824edf5" x="572.895722" y="104.598111" style="fill: #1f77b4; stroke: #1f77b4"/>
     <use xlink:href="#m2c3824edf5" x="575.879679" y="103.776375" style="fill: #1f77b4; stroke: #1f77b4"/>
     <use xlink:href="#m2c3824edf5" x="578.863636" y="163.516157" style="fill: #1f77b4; stroke: #1f77b4"/>
     <use xlink:href="#m2c3824edf5" x="581.847594" y="134.655016" style="fill: #1f77b4; stroke: #1f77b4"/>
     <use xlink:href="#m2c3824edf5" x="584.831551" y="179.589732" style="fill: #1f77b4; stroke: #1f77b4"/>
     <use xlink:href="#m2c3824edf5" x="587.815508" y="147.793975" style="fill: #1f77b4; stroke: #1f77b4"/>
     <use xlink:href="#m2c3824edf5" x="590.799465" y="122.137745" style="fill: #1f77b4; stroke: #1f77b4"/>
     <use xlink:href="#m2c3824edf5" x="593.783422" y="184.68" style="fill: #1f77b4; stroke: #1f77b4"/>
     <use xlink:href="#m2c3824edf5" x="596.76738" y="182.469555" style="fill: #1f77b4; stroke: #1f77b4"/>
     <use xlink:href="#m2c3824edf5" x="599.751337" y="117.785931" style="fill: #1f77b4; stroke: #1f77b4"/>
     <use xlink:href="#m2c3824edf5" x="602.735294" y="148.106028" style="fill: #1f77b4; stroke: #1f77b4"/>
     <use xlink:href="#m2c3824edf5" x="605.719251" y="117.785931" style="fill: #1f77b4; stroke: #1f77b4"/>
     <use xlink:href="#m2c3824edf5" x="608.703209" y="182.469555" style="fill: #1f77b4; stroke: #1f77b4"/>
     <use xlink:href="#m2c3824edf5" x="611.687166" y="184.68" style="fill: #1f77b4; stroke: #1f77b4"/>
     <use xlink:href="#m2c3824edf5" x="614.671123" y="122.137745" style="fill: #1f77b4; stroke: #1f77b4"/>
     <use xlink:href="#m2c3824edf5" x="617.65508" y="147.793975" style="fill: #1f77b4; stroke: #1f77b4"/>
     <use xlink:href="#m2c3824edf5" x="620.639037" y="179.589732" style="fill: #1f77b4; stroke: #1f77b4"/>
     <use xlink:href="#m2c3824edf5" x="623.622995" y="134.655016" style="fill: #1f77b4; stroke: #1f77b4"/>
     <use xlink:href="#m2c3824edf5" x="626.606952" y="163.516157" style="fill: #1f77b4; stroke: #1f77b4"/>
     <use xlink:href="#m2c3824edf5" x="629.590909" y="103.776375" style="fill: #1f77b4; stroke: #1f77b4"/>
     <use xlink:href="#m2c3824edf5" x="632.574866" y="104.598111" style="fill: #1f77b4; stroke: #1f77b4"/>
     <use xlink:href="#m2c3824edf5" x="635.558824" y="158.456876" style="fill: #1f77b4; stroke: #1f77b4"/>
     <use xlink:href="#m2c3824edf5" x="638.542781" y="101.212118" style="fill: #1f77b4; stroke: #1f77b4"/>
     <use xlink:href="#m2c3824edf5" x="641.526738" y="158.553348" style="fill: #1f77b4; stroke: #1f77b4"/>
     <use xlink:href="#m2c3824edf5" x="644.510695" y="87.500333" style="fill: #1f77b4; stroke: #1f77b4"/>
     <use xlink:href="#m2c3824edf5" x="647.494652" y="113.124405" style="fill: #1f77b4; stroke: #1f77b4"/>
     <use xlink:href="#m2c3824edf5" x="650.47861" y="148.106028" style="fill: #1f77b4; stroke: #1f77b4"/>
     <use xlink:href="#m2c3824edf5" x="653.462567" y="105.034659" style="fill: #1f77b4; stroke: #1f77b4"/>
     <use xlink:href="#m2c3824edf5" x="656.446524" y="130.659277" style="fill: #1f77b4; stroke: #1f77b4"/>
     <use xlink:href="#m2c3824edf5" x="659.430481" y="59.606886" style="fill: #1f77b4; stroke: #1f77b4"/>
     <use xlink:href="#m2c3824edf5" x="662.414439" y="116.947492" style="fill: #1f77b4; stroke: #1f77b4"/>
     <use xlink:href="#m2c3824edf5" x="665.398396" y="59.702734" style="fill: #1f77b4; stroke: #1f77b4"/>
     <use xlink:href="#m2c3824edf5" x="668.382353" y="113.561498" style="fill: #1f77b4; stroke: #1f77b4"/>
     <use xlink:href="#m2c3824edf5" x="671.36631" y="114.383234" style="fill: #1f77b4; stroke: #1f77b4"/>
     <use xlink:href="#m2c3824edf5" x="674.350267" y="54.64314" style="fill: #1f77b4; stroke: #1f77b4"/>
     <use xlink:href="#m2c3824edf5" x="677.334225" y="83.504125" style="fill: #1f77b4; stroke: #1f77b4"/>
     <use xlink:href="#m2c3824edf5" x="680.318182" y="38.570503" style="fill: #1f77b4; stroke: #1f77b4"/>
     <use xlink:href="#m2c3824edf5" x="683.302139" y="70.365869" style="fill: #1f77b4; stroke: #1f77b4"/>
     <use xlink:href="#m2c3824edf5" x="686.286096" y="96.021709" style="fill: #1f77b4; stroke: #1f77b4"/>
     <use xlink:href="#m2c3824edf5" x="689.270053" y="33.48" style="fill: #1f77b4; stroke: #1f77b4"/>
     <use xlink:href="#m2c3824edf5" x="692.254011" y="35.689509" style="fill: #1f77b4; stroke: #1f77b4"/>
     <use xlink:href="#m2c3824edf5" x="695.237968" y="100.373835" style="fill: #1f77b4; stroke: #1f77b4"/>
     <use xlink:href="#m2c3824edf5" x="698.221925" y="70.053581" style="fill: #1f77b4; stroke: #1f77b4"/>
     <use xlink:href="#m2c3824edf5" x="701.205882" y="100.373835" style="fill: #1f77b4; stroke: #1f77b4"/>
     <use xlink:href="#m2c3824edf5" x="704.18984" y="35.689509" style="fill: #1f77b4; stroke: #1f77b4"/>
     <use xlink:href="#m2c3824edf5" x="707.173797" y="33.48" style="fill: #1f77b4; stroke: #1f77b4"/>
     <use xlink:href="#m2c3824edf5" x="710.157754" y="96.021709" style="fill: #1f77b4; stroke: #1f77b4"/>
     <use xlink:href="#m2c3824edf5" x="713.141711" y="70.365869" style="fill: #1f77b4; stroke: #1f77b4"/>
     <use xlink:href="#m2c3824edf5" x="716.125668" y="38.570503" style="fill: #1f77b4; stroke: #1f77b4"/>
     <use xlink:href="#m2c3824edf5" x="719.109626" y="83.504125" style="fill: #1f77b4; stroke: #1f77b4"/>
     <use xlink:href="#m2c3824edf5" x="722.093583" y="54.64314" style="fill: #1f77b4; stroke: #1f77b4"/>
     <use xlink:href="#m2c3824edf5" x="725.07754" y="114.383234" style="fill: #1f77b4; stroke: #1f77b4"/>
     <use xlink:href="#m2c3824edf5" x="728.061497" y="113.561498" style="fill: #1f77b4; stroke: #1f77b4"/>
     <use xlink:href="#m2c3824edf5" x="731.045455" y="59.702734" style="fill: #1f77b4; stroke: #1f77b4"/>
     <use xlink:href="#m2c3824edf5" x="734.029412" y="116.947492" style="fill: #1f77b4; stroke: #1f77b4"/>
     <use xlink:href="#m2c3824edf5" x="737.013369" y="59.606886" style="fill: #1f77b4; stroke: #1f77b4"/>
     <use xlink:href="#m2c3824edf5" x="739.997326" y="130.659277" style="fill: #1f77b4; stroke: #1f77b4"/>
     <use xlink:href="#m2c3824edf5" x="742.981283" y="105.034659" style="fill: #1f77b4; stroke: #1f77b4"/>
     <use xlink:href="#m2c3824edf5" x="745.965241" y="148.106028" style="fill: #1f77b4; stroke: #1f77b4"/>
     <use xlink:href="#m2c3824edf5" x="748.949198" y="113.124405" style="fill: #1f77b4; stroke: #1f77b4"/>
     <use xlink:href="#m2c3824edf5" x="751.933155" y="87.500333" style="fill: #1f77b4; stroke: #1f77b4"/>
     <use xlink:href="#m2c3824edf5" x="754.917112" y="158.553348" style="fill: #1f77b4; stroke: #1f77b4"/>
     <use xlink:href="#m2c3824edf5" x="757.90107" y="101.212118" style="fill: #1f77b4; stroke: #1f77b4"/>
     <use xlink:href="#m2c3824edf5" x="760.885027" y="158.456876" style="fill: #1f77b4; stroke: #1f77b4"/>
     <use xlink:href="#m2c3824edf5" x="763.868984" y="104.598111" style="fill: #1f77b4; stroke: #1f77b4"/>
     <use xlink:href="#m2c3824edf5" x="766.852941" y="103.776375" style="fill: #1f77b4; stroke: #1f77b4"/>
     <use xlink:href="#m2c3824edf5" x="769.836898" y="163.516157" style="fill: #1f77b4; stroke: #1f77b4"/>
     <use xlink:href="#m2c3824edf5" x="772.820856" y="134.655016" style="fill: #1f77b4; stroke: #1f77b4"/>
     <use xlink:href="#m2c3824edf5" x="775.804813" y="179.589732" style="fill: #1f77b4; stroke: #1f77b4"/>
     <use xlink:href="#m2c3824edf5" x="778.78877" y="147.793975" style="fill: #1f77b4; stroke: #1f77b4"/>
     <use xlink:href="#m2c3824edf5" x="781.772727" y="122.137745" style="fill: #1f77b4; stroke: #1f77b4"/>
     <use xlink:href="#m2c3824edf5" x="784.756684" y="184.68" style="fill: #1f77b4; stroke: #1f77b4"/>
     <use xlink:href="#m2c3824edf5" x="787.740642" y="182.469555" style="fill: #1f77b4; stroke: #1f77b4"/>
     <use xlink:href="#m2c3824edf5" x="790.724599" y="117.785931" style="fill: #1f77b4; stroke: #1f77b4"/>
     <use xlink:href="#m2c3824edf5" x="793.708556" y="148.106028" style="fill: #1f77b4; stroke: #1f77b4"/>
     <use xlink:href="#m2c3824edf5" x="796.692513" y="117.785931" style="fill: #1f77b4; stroke: #1f77b4"/>
     <use xlink:href="#m2c3824edf5" x="799.676471" y="182.469555" style="fill: #1f77b4; stroke: #1f77b4"/>
     <use xlink:href="#m2c3824edf5" x="802.660428" y="184.68" style="fill: #1f77b4; stroke: #1f77b4"/>
     <use xlink:href="#m2c3824edf5" x="805.644385" y="122.137745" style="fill: #1f77b4; stroke: #1f77b4"/>
     <use xlink:href="#m2c3824edf5" x="808.628342" y="147.793975" style="fill: #1f77b4; stroke: #1f77b4"/>
     <use xlink:href="#m2c3824edf5" x="811.612299" y="179.589732" style="fill: #1f77b4; stroke: #1f77b4"/>
     <use xlink:href="#m2c3824edf5" x="814.596257" y="134.655016" style="fill: #1f77b4; stroke: #1f77b4"/>
     <use xlink:href="#m2c3824edf5" x="817.580214" y="163.516157" style="fill: #1f77b4; stroke: #1f77b4"/>
     <use xlink:href="#m2c3824edf5" x="820.564171" y="103.776375" style="fill: #1f77b4; stroke: #1f77b4"/>
     <use xlink:href="#m2c3824edf5" x="823.548128" y="104.598111" style="fill: #1f77b4; stroke: #1f77b4"/>
     <use xlink:href="#m2c3824edf5" x="826.532086" y="158.456876" style="fill: #1f77b4; stroke: #1f77b4"/>
     <use xlink:href="#m2c3824edf5" x="829.516043" y="101.212118" style="fill: #1f77b4; stroke: #1f77b4"/>
     <use xlink:href="#m2c3824edf5" x="832.5" y="158.553348" style="fill: #1f77b4; stroke: #1f77b4"/>
     <use xlink:href="#m2c3824edf5" x="835.483957" y="87.500333" style="fill: #1f77b4; stroke: #1f77b4"/>
     <use xlink:href="#m2c3824edf5" x="838.467914" y="113.124405" style="fill: #1f77b4; stroke: #1f77b4"/>
     <use xlink:href="#m2c3824edf5" x="841.451872" y="148.106028" style="fill: #1f77b4; stroke: #1f77b4"/>
     <use xlink:href="#m2c3824edf5" x="844.435829" y="105.034659" style="fill: #1f77b4; stroke: #1f77b4"/>
     <use xlink:href="#m2c3824edf5" x="847.419786" y="130.659277" style="fill: #1f77b4; stroke: #1f77b4"/>
     <use xlink:href="#m2c3824edf5" x="850.403743" y="59.606886" style="fill: #1f77b4; stroke: #1f77b4"/>
     <use xlink:href="#m2c3824edf5" x="853.387701" y="116.947492" style="fill: #1f77b4; stroke: #1f77b4"/>
     <use xlink:href="#m2c3824edf5" x="856.371658" y="59.702734" style="fill: #1f77b4; stroke: #1f77b4"/>
     <use xlink:href="#m2c3824edf5" x="859.355615" y="113.561498" style="fill: #1f77b4; stroke: #1f77b4"/>
     <use xlink:href="#m2c3824edf5" x="862.339572" y="114.383234" style="fill: #1f77b4; stroke: #1f77b4"/>
     <use xlink:href="#m2c3824edf5" x="865.323529" y="54.64314" style="fill: #1f77b4; stroke: #1f77b4"/>
     <use xlink:href="#m2c3824edf5" x="868.307487" y="83.504125" style="fill: #1f77b4; stroke: #1f77b4"/>
     <use xlink:href="#m2c3824edf5" x="871.291444" y="38.570503" style="fill: #1f77b4; stroke: #1f77b4"/>
     <use xlink:href="#m2c3824edf5" x="874.275401" y="70.365869" style="fill: #1f77b4; stroke: #1f77b4"/>
     <use xlink:href="#m2c3824edf5" x="877.259358" y="96.021709" style="fill: #1f77b4; stroke: #1f77b4"/>
     <use xlink:href="#m2c3824edf5" x="880.243316" y="33.48" style="fill: #1f77b4; stroke: #1f77b4"/>
     <use xlink:href="#m2c3824edf5" x="883.227273" y="35.689509" style="fill: #1f77b4; stroke: #1f77b4"/>
     <use xlink:href="#m2c3824edf5" x="886.21123" y="100.373835" style="fill: #1f77b4; stroke: #1f77b4"/>
     <use xlink:href="#m2c3824edf5" x="889.195187" y="70.053581" style="fill: #1f77b4; stroke: #1f77b4"/>
     <use xlink:href="#m2c3824edf5" x="892.179144" y="100.373835" style="fill: #1f77b4; stroke: #1f77b4"/>
     <use xlink:href="#m2c3824edf5" x="895.163102" y="35.689509" style="fill: #1f77b4; stroke: #1f77b4"/>
     <use xlink:href="#m2c3824edf5" x="898.147059" y="33.48" style="fill: #1f77b4; stroke: #1f77b4"/>
     <use xlink:href="#m2c3824edf5" x="901.131016" y="96.021709" style="fill: #1f77b4; stroke: #1f77b4"/>
     <use xlink:href="#m2c3824edf5" x="904.114973" y="70.365869" style="fill: #1f77b4; stroke: #1f77b4"/>
     <use xlink:href="#m2c3824edf5" x="907.09893" y="38.570503" style="fill: #1f77b4; stroke: #1f77b4"/>
     <use xlink:href="#m2c3824edf5" x="910.082888" y="83.504125" style="fill: #1f77b4; stroke: #1f77b4"/>
     <use xlink:href="#m2c3824edf5" x="913.066845" y="54.64314" style="fill: #1f77b4; stroke: #1f77b4"/>
     <use xlink:href="#m2c3824edf5" x="916.050802" y="114.383234" style="fill: #1f77b4; stroke: #1f77b4"/>
     <use xlink:href="#m2c3824edf5" x="919.034759" y="113.561498" style="fill: #1f77b4; stroke: #1f77b4"/>
     <use xlink:href="#m2c3824edf5" x="922.018717" y="59.702734" style="fill: #1f77b4; stroke: #1f77b4"/>
     <use xlink:href="#m2c3824edf5" x="925.002674" y="116.947492" style="fill: #1f77b4; stroke: #1f77b4"/>
     <use xlink:href="#m2c3824edf5" x="927.986631" y="59.606886" style="fill: #1f77b4; stroke: #1f77b4"/>
     <use xlink:href="#m2c3824edf5" x="930.970588" y="130.659277" style="fill: #1f77b4; stroke: #1f77b4"/>
     <use xlink:href="#m2c3824edf5" x="933.954545" y="105.034659" style="fill: #1f77b4; stroke: #1f77b4"/>
    </g>
   </g>
   <g id="matplotlib.axis_1">
    <g id="xtick_1">
     <g id="line2d_1">
      <defs>
       <path id="m42a686cf80" d="M 0 0 
L 0 3.5 
" style="stroke: #000000; stroke-width: 0.8"/>
      </defs>
      <g>
       <use xlink:href="#m42a686cf80" x="173.045455" y="192.24" style="stroke: #000000; stroke-width: 0.8"/>
      </g>
     </g>
     <g id="text_1">
      <!-- 0 -->
      <g transform="translate(169.864205 206.838437) scale(0.1 -0.1)">
       <defs>
        <path id="DejaVuSans-30" d="M 2034 4250 
Q 1547 4250 1301 3770 
Q 1056 3291 1056 2328 
Q 1056 1369 1301 889 
Q 1547 409 2034 409 
Q 2525 409 2770 889 
Q 3016 1369 3016 2328 
Q 3016 3291 2770 3770 
Q 2525 4250 2034 4250 
z
M 2034 4750 
Q 2819 4750 3233 4129 
Q 3647 3509 3647 2328 
Q 3647 1150 3233 529 
Q 2819 -91 2034 -91 
Q 1250 -91 836 529 
Q 422 1150 422 2328 
Q 422 3509 836 4129 
Q 1250 4750 2034 4750 
z
" transform="scale(0.015625)"/>
       </defs>
       <use xlink:href="#DejaVuSans-30"/>
      </g>
     </g>
    </g>
    <g id="xtick_2">
     <g id="line2d_2">
      <g>
       <use xlink:href="#m42a686cf80" x="322.243316" y="192.24" style="stroke: #000000; stroke-width: 0.8"/>
      </g>
     </g>
     <g id="text_2">
      <!-- 50 -->
      <g transform="translate(315.880816 206.838437) scale(0.1 -0.1)">
       <defs>
        <path id="DejaVuSans-35" d="M 691 4666 
L 3169 4666 
L 3169 4134 
L 1269 4134 
L 1269 2991 
Q 1406 3038 1543 3061 
Q 1681 3084 1819 3084 
Q 2600 3084 3056 2656 
Q 3513 2228 3513 1497 
Q 3513 744 3044 326 
Q 2575 -91 1722 -91 
Q 1428 -91 1123 -41 
Q 819 9 494 109 
L 494 744 
Q 775 591 1075 516 
Q 1375 441 1709 441 
Q 2250 441 2565 725 
Q 2881 1009 2881 1497 
Q 2881 1984 2565 2268 
Q 2250 2553 1709 2553 
Q 1456 2553 1204 2497 
Q 953 2441 691 2322 
L 691 4666 
z
" transform="scale(0.015625)"/>
       </defs>
       <use xlink:href="#DejaVuSans-35"/>
       <use xlink:href="#DejaVuSans-30" x="63.623047"/>
      </g>
     </g>
    </g>
    <g id="xtick_3">
     <g id="line2d_3">
      <g>
       <use xlink:href="#m42a686cf80" x="471.441176" y="192.24" style="stroke: #000000; stroke-width: 0.8"/>
      </g>
     </g>
     <g id="text_3">
      <!-- 100 -->
      <g transform="translate(461.897426 206.838437) scale(0.1 -0.1)">
       <defs>
        <path id="DejaVuSans-31" d="M 794 531 
L 1825 531 
L 1825 4091 
L 703 3866 
L 703 4441 
L 1819 4666 
L 2450 4666 
L 2450 531 
L 3481 531 
L 3481 0 
L 794 0 
L 794 531 
z
" transform="scale(0.015625)"/>
       </defs>
       <use xlink:href="#DejaVuSans-31"/>
       <use xlink:href="#DejaVuSans-30" x="63.623047"/>
       <use xlink:href="#DejaVuSans-30" x="127.246094"/>
      </g>
     </g>
    </g>
    <g id="xtick_4">
     <g id="line2d_4">
      <g>
       <use xlink:href="#m42a686cf80" x="620.639037" y="192.24" style="stroke: #000000; stroke-width: 0.8"/>
      </g>
     </g>
     <g id="text_4">
      <!-- 150 -->
      <g transform="translate(611.095287 206.838437) scale(0.1 -0.1)">
       <use xlink:href="#DejaVuSans-31"/>
       <use xlink:href="#DejaVuSans-35" x="63.623047"/>
       <use xlink:href="#DejaVuSans-30" x="127.246094"/>
      </g>
     </g>
    </g>
    <g id="xtick_5">
     <g id="line2d_5">
      <g>
       <use xlink:href="#m42a686cf80" x="769.836898" y="192.24" style="stroke: #000000; stroke-width: 0.8"/>
      </g>
     </g>
     <g id="text_5">
      <!-- 200 -->
      <g transform="translate(760.293148 206.838437) scale(0.1 -0.1)">
       <defs>
        <path id="DejaVuSans-32" d="M 1228 531 
L 3431 531 
L 3431 0 
L 469 0 
L 469 531 
Q 828 903 1448 1529 
Q 2069 2156 2228 2338 
Q 2531 2678 2651 2914 
Q 2772 3150 2772 3378 
Q 2772 3750 2511 3984 
Q 2250 4219 1831 4219 
Q 1534 4219 1204 4116 
Q 875 4013 500 3803 
L 500 4441 
Q 881 4594 1212 4672 
Q 1544 4750 1819 4750 
Q 2544 4750 2975 4387 
Q 3406 4025 3406 3419 
Q 3406 3131 3298 2873 
Q 3191 2616 2906 2266 
Q 2828 2175 2409 1742 
Q 1991 1309 1228 531 
z
" transform="scale(0.015625)"/>
       </defs>
       <use xlink:href="#DejaVuSans-32"/>
       <use xlink:href="#DejaVuSans-30" x="63.623047"/>
       <use xlink:href="#DejaVuSans-30" x="127.246094"/>
      </g>
     </g>
    </g>
    <g id="xtick_6">
     <g id="line2d_6">
      <g>
       <use xlink:href="#m42a686cf80" x="919.034759" y="192.24" style="stroke: #000000; stroke-width: 0.8"/>
      </g>
     </g>
     <g id="text_6">
      <!-- 250 -->
      <g transform="translate(909.491009 206.838437) scale(0.1 -0.1)">
       <use xlink:href="#DejaVuSans-32"/>
       <use xlink:href="#DejaVuSans-35" x="63.623047"/>
       <use xlink:href="#DejaVuSans-30" x="127.246094"/>
      </g>
     </g>
    </g>
   </g>
   <g id="matplotlib.axis_2">
    <g id="ytick_1">
     <g id="line2d_7">
      <defs>
       <path id="m4cb706e690" d="M 0 0 
L -3.5 0 
" style="stroke: #000000; stroke-width: 0.8"/>
      </defs>
      <g>
       <use xlink:href="#m4cb706e690" x="135" y="187.132252" style="stroke: #000000; stroke-width: 0.8"/>
      </g>
     </g>
     <g id="text_7">
      <!-- −0.5 -->
      <g transform="translate(103.717187 190.931471) scale(0.1 -0.1)">
       <defs>
        <path id="DejaVuSans-2212" d="M 678 2272 
L 4684 2272 
L 4684 1741 
L 678 1741 
L 678 2272 
z
" transform="scale(0.015625)"/>
        <path id="DejaVuSans-2e" d="M 684 794 
L 1344 794 
L 1344 0 
L 684 0 
L 684 794 
z
" transform="scale(0.015625)"/>
       </defs>
       <use xlink:href="#DejaVuSans-2212"/>
       <use xlink:href="#DejaVuSans-30" x="83.789062"/>
       <use xlink:href="#DejaVuSans-2e" x="147.412109"/>
       <use xlink:href="#DejaVuSans-35" x="179.199219"/>
      </g>
     </g>
    </g>
    <g id="ytick_2">
     <g id="line2d_8">
      <g>
       <use xlink:href="#m4cb706e690" x="135" y="148.106028" style="stroke: #000000; stroke-width: 0.8"/>
      </g>
     </g>
     <g id="text_8">
      <!-- 0.0 -->
      <g transform="translate(112.096875 151.905247) scale(0.1 -0.1)">
       <use xlink:href="#DejaVuSans-30"/>
       <use xlink:href="#DejaVuSans-2e" x="63.623047"/>
       <use xlink:href="#DejaVuSans-30" x="95.410156"/>
      </g>
     </g>
    </g>
    <g id="ytick_3">
     <g id="line2d_9">
      <g>
       <use xlink:href="#m4cb706e690" x="135" y="109.079805" style="stroke: #000000; stroke-width: 0.8"/>
      </g>
     </g>
     <g id="text_9">
      <!-- 0.5 -->
      <g transform="translate(112.096875 112.879024) scale(0.1 -0.1)">
       <use xlink:href="#DejaVuSans-30"/>
       <use xlink:href="#DejaVuSans-2e" x="63.623047"/>
       <use xlink:href="#DejaVuSans-35" x="95.410156"/>
      </g>
     </g>
    </g>
    <g id="ytick_4">
     <g id="line2d_10">
      <g>
       <use xlink:href="#m4cb706e690" x="135" y="70.053581" style="stroke: #000000; stroke-width: 0.8"/>
      </g>
     </g>
     <g id="text_10">
      <!-- 1.0 -->
      <g transform="translate(112.096875 73.8528) scale(0.1 -0.1)">
       <use xlink:href="#DejaVuSans-31"/>
       <use xlink:href="#DejaVuSans-2e" x="63.623047"/>
       <use xlink:href="#DejaVuSans-30" x="95.410156"/>
      </g>
     </g>
    </g>
    <g id="ytick_5">
     <g id="line2d_11">
      <g>
       <use xlink:href="#m4cb706e690" x="135" y="31.027358" style="stroke: #000000; stroke-width: 0.8"/>
      </g>
     </g>
     <g id="text_11">
      <!-- 1.5 -->
      <g transform="translate(112.096875 34.826577) scale(0.1 -0.1)">
       <use xlink:href="#DejaVuSans-31"/>
       <use xlink:href="#DejaVuSans-2e" x="63.623047"/>
       <use xlink:href="#DejaVuSans-35" x="95.410156"/>
      </g>
     </g>
    </g>
   </g>
   <g id="patch_3">
    <path d="M 135 192.24 
L 135 25.92 
" style="fill: none; stroke: #000000; stroke-width: 0.8; stroke-linejoin: miter; stroke-linecap: square"/>
   </g>
   <g id="patch_4">
    <path d="M 972 192.24 
L 972 25.92 
" style="fill: none; stroke: #000000; stroke-width: 0.8; stroke-linejoin: miter; stroke-linecap: square"/>
   </g>
   <g id="patch_5">
    <path d="M 135 192.24 
L 972 192.24 
" style="fill: none; stroke: #000000; stroke-width: 0.8; stroke-linejoin: miter; stroke-linecap: square"/>
   </g>
   <g id="patch_6">
    <path d="M 135 25.92 
L 972 25.92 
" style="fill: none; stroke: #000000; stroke-width: 0.8; stroke-linejoin: miter; stroke-linecap: square"/>
   </g>
   <g id="text_12">
    <!-- CROSS_DIFF -->
    <g transform="translate(516.508125 19.92) scale(0.12 -0.12)">
     <defs>
      <path id="DejaVuSans-43" d="M 4122 4306 
L 4122 3641 
Q 3803 3938 3442 4084 
Q 3081 4231 2675 4231 
Q 1875 4231 1450 3742 
Q 1025 3253 1025 2328 
Q 1025 1406 1450 917 
Q 1875 428 2675 428 
Q 3081 428 3442 575 
Q 3803 722 4122 1019 
L 4122 359 
Q 3791 134 3420 21 
Q 3050 -91 2638 -91 
Q 1578 -91 968 557 
Q 359 1206 359 2328 
Q 359 3453 968 4101 
Q 1578 4750 2638 4750 
Q 3056 4750 3426 4639 
Q 3797 4528 4122 4306 
z
" transform="scale(0.015625)"/>
      <path id="DejaVuSans-52" d="M 2841 2188 
Q 3044 2119 3236 1894 
Q 3428 1669 3622 1275 
L 4263 0 
L 3584 0 
L 2988 1197 
Q 2756 1666 2539 1819 
Q 2322 1972 1947 1972 
L 1259 1972 
L 1259 0 
L 628 0 
L 628 4666 
L 2053 4666 
Q 2853 4666 3247 4331 
Q 3641 3997 3641 3322 
Q 3641 2881 3436 2590 
Q 3231 2300 2841 2188 
z
M 1259 4147 
L 1259 2491 
L 2053 2491 
Q 2509 2491 2742 2702 
Q 2975 2913 2975 3322 
Q 2975 3731 2742 3939 
Q 2509 4147 2053 4147 
L 1259 4147 
z
" transform="scale(0.015625)"/>
      <path id="DejaVuSans-4f" d="M 2522 4238 
Q 1834 4238 1429 3725 
Q 1025 3213 1025 2328 
Q 1025 1447 1429 934 
Q 1834 422 2522 422 
Q 3209 422 3611 934 
Q 4013 1447 4013 2328 
Q 4013 3213 3611 3725 
Q 3209 4238 2522 4238 
z
M 2522 4750 
Q 3503 4750 4090 4092 
Q 4678 3434 4678 2328 
Q 4678 1225 4090 567 
Q 3503 -91 2522 -91 
Q 1538 -91 948 565 
Q 359 1222 359 2328 
Q 359 3434 948 4092 
Q 1538 4750 2522 4750 
z
" transform="scale(0.015625)"/>
      <path id="DejaVuSans-53" d="M 3425 4513 
L 3425 3897 
Q 3066 4069 2747 4153 
Q 2428 4238 2131 4238 
Q 1616 4238 1336 4038 
Q 1056 3838 1056 3469 
Q 1056 3159 1242 3001 
Q 1428 2844 1947 2747 
L 2328 2669 
Q 3034 2534 3370 2195 
Q 3706 1856 3706 1288 
Q 3706 609 3251 259 
Q 2797 -91 1919 -91 
Q 1588 -91 1214 -16 
Q 841 59 441 206 
L 441 856 
Q 825 641 1194 531 
Q 1563 422 1919 422 
Q 2459 422 2753 634 
Q 3047 847 3047 1241 
Q 3047 1584 2836 1778 
Q 2625 1972 2144 2069 
L 1759 2144 
Q 1053 2284 737 2584 
Q 422 2884 422 3419 
Q 422 4038 858 4394 
Q 1294 4750 2059 4750 
Q 2388 4750 2728 4690 
Q 3069 4631 3425 4513 
z
" transform="scale(0.015625)"/>
      <path id="DejaVuSans-5f" d="M 3263 -1063 
L 3263 -1509 
L -63 -1509 
L -63 -1063 
L 3263 -1063 
z
" transform="scale(0.015625)"/>
      <path id="DejaVuSans-44" d="M 1259 4147 
L 1259 519 
L 2022 519 
Q 2988 519 3436 956 
Q 3884 1394 3884 2338 
Q 3884 3275 3436 3711 
Q 2988 4147 2022 4147 
L 1259 4147 
z
M 628 4666 
L 1925 4666 
Q 3281 4666 3915 4102 
Q 4550 3538 4550 2338 
Q 4550 1131 3912 565 
Q 3275 0 1925 0 
L 628 0 
L 628 4666 
z
" transform="scale(0.015625)"/>
      <path id="DejaVuSans-49" d="M 628 4666 
L 1259 4666 
L 1259 0 
L 628 0 
L 628 4666 
z
" transform="scale(0.015625)"/>
      <path id="DejaVuSans-46" d="M 628 4666 
L 3309 4666 
L 3309 4134 
L 1259 4134 
L 1259 2759 
L 3109 2759 
L 3109 2228 
L 1259 2228 
L 1259 0 
L 628 0 
L 628 4666 
z
" transform="scale(0.015625)"/>
     </defs>
     <use xlink:href="#DejaVuSans-43"/>
     <use xlink:href="#DejaVuSans-52" x="69.824219"/>
     <use xlink:href="#DejaVuSans-4f" x="139.306641"/>
     <use xlink:href="#DejaVuSans-53" x="218.017578"/>
     <use xlink:href="#DejaVuSans-53" x="281.494141"/>
     <use xlink:href="#DejaVuSans-5f" x="344.970703"/>
     <use xlink:href="#DejaVuSans-44" x="394.970703"/>
     <use xlink:href="#DejaVuSans-49" x="471.972656"/>
     <use xlink:href="#DejaVuSans-46" x="501.464844"/>
     <use xlink:href="#DejaVuSans-46" x="558.984375"/>
    </g>
   </g>
  </g>
 </g>
 <defs>
  <clipPath id="p42e15f2049">
   <rect x="135" y="25.92" width="837" height="166.32"/>
  </clipPath>
 </defs>
</svg>
